<svg width="88" height="83" viewBox="0 0 88 83" fill="none" xmlns="http://www.w3.org/2000/svg">
<path d="M23.3526 64.277L10.307 64.0717L13.1774 52.6991L8.04064 52.6182L8.19468 42.8339L15.6144 42.9508L19.001 29.8736L12.4781 29.7709L12.6322 19.9867L21.438 20.1253L24.3084 8.75273L37.354 8.95812L34.4837 20.3307L42.6372 20.4591L45.5076 9.08649L58.5532 9.29188L55.6828 20.6645L60.738 20.7441L60.584 30.5283L53.2458 30.4128L49.8593 43.4899L56.3006 43.5913L56.1465 53.3756L47.4222 53.2382L44.5518 64.6108L31.5062 64.4054L34.3766 53.0328L26.223 52.9045L23.3526 64.277ZM32.0466 30.079L28.6601 43.1562L36.8136 43.2845L40.2002 30.2074L32.0466 30.079Z" fill="#D04094"/>
<g filter="url(#filter0_f_19_96)">
<path d="M24.5924 71.2974L10.5863 71.0769L13.668 58.867L8.15309 58.7802L8.31847 48.2756L16.2845 48.401L19.9203 34.3611L12.9173 34.2509L13.0827 23.7463L22.5368 23.8951L25.6185 11.6853L39.6246 11.9058L36.5429 24.1156L45.2967 24.2535L48.3784 12.0436L62.3845 12.2641L59.3028 24.474L64.7302 24.5594L64.5648 35.064L56.6864 34.94L53.0505 48.9799L59.966 49.0888L59.8006 59.5933L50.4341 59.4459L47.3523 71.6557L33.3462 71.4352L36.4279 59.2254L27.6741 59.0875L24.5924 71.2974ZM33.9264 34.5816L30.2906 48.6215L39.0444 48.7594L42.6803 34.7195L33.9264 34.5816Z" fill="#D04094" fill-opacity="0.64"/>
</g>
<defs>
<filter id="filter0_f_19_96" x="0.370536" y="3.8326" width="72.142" height="75.6744" filterUnits="userSpaceOnUse" color-interpolation-filters="sRGB">
<feFlood flood-opacity="0" result="BackgroundImageFix"/>
<feBlend mode="normal" in="SourceGraphic" in2="BackgroundImageFix" result="shape"/>
<feGaussianBlur stdDeviation="3.79471" result="effect1_foregroundBlur_19_96"/>
</filter>
</defs>
</svg>
