<svg width="284" height="159" viewBox="0 0 284 159" fill="none" xmlns="http://www.w3.org/2000/svg">
<path d="M42.3651 112.487L19.4468 112.126L24.4894 92.1469L15.4654 92.0048L15.736 74.8161L28.7707 75.0213L34.7201 52.0478L23.261 51.8674L23.5316 34.6787L39.0015 34.9222L44.0441 14.9432L66.9623 15.304L61.9197 35.2831L76.2436 35.5086L81.2862 15.5295L104.204 15.8903L99.1619 35.8694L108.043 36.0092L107.772 53.1979L94.8806 52.995L88.9312 75.9685L100.247 76.1467L99.9764 93.3354L84.6499 93.0941L79.6072 113.073L56.689 112.712L61.7316 92.7332L47.4077 92.5077L42.3651 112.487ZM57.6384 52.4086L51.689 75.3822L66.0129 75.6077L71.9623 52.6341L57.6384 52.4086Z" fill="#D04094"/>
<g filter="url(#filter0_f_1_3687)">
<path d="M40.2957 126.283L17.3775 125.922L22.4201 105.943L13.396 105.801L13.6667 88.612L26.7014 88.8172L32.6508 65.8436L21.1917 65.6632L21.4623 48.4745L36.9321 48.7181L41.9747 28.739L64.893 29.0998L59.8504 49.0789L74.1743 49.3044L79.2169 29.3254L102.135 29.6862L97.0925 49.6652L105.973 49.8051L105.703 66.9938L92.8112 66.7908L86.8618 89.7643L98.1777 89.9425L97.9071 107.131L82.5805 106.89L77.5379 126.869L54.6197 126.508L59.6623 106.529L45.3384 106.304L40.2957 126.283ZM55.5691 66.2045L49.6197 89.178L63.9436 89.4035L69.893 66.43L55.5691 66.2045Z" fill="#D04094" fill-opacity="0.64"/>
</g>
<g filter="url(#filter1_d_1_3687)">
<path d="M68.5742 51.831H82.9798C86.457 51.831 89.2388 52.6423 91.3251 54.265C93.4114 55.8546 94.2228 58.1065 93.7591 61.0208C93.428 62.9746 92.6663 64.5642 91.4741 65.7895C90.2819 67.0148 88.8414 67.8593 87.1524 68.3229C87.9472 68.5547 88.6758 68.9024 89.3381 69.3661C90.0004 69.7966 90.6296 70.3596 91.2257 71.055C91.8218 71.7504 92.2358 72.6446 92.4676 73.7374C92.7325 74.7971 92.7656 75.9893 92.5669 77.314C92.2689 79.1354 91.6231 80.6918 90.6296 81.9834C89.6362 83.2749 88.4109 84.2353 86.9537 84.8645C85.4966 85.4937 84.0395 85.9408 82.5824 86.2057C81.1584 86.4706 79.6185 86.6031 77.9627 86.6031H63.0603L68.5742 51.831ZM87.0034 76.2211C87.169 75.3601 87.1359 74.5984 86.9041 73.9361C86.7054 73.2738 86.4073 72.777 86.0099 72.4459C85.6125 72.0816 85.0827 71.8001 84.4203 71.6014C83.7911 71.3696 83.195 71.2206 82.6321 71.1543C82.0691 71.0881 81.4399 71.055 80.7444 71.055H71.207L69.518 81.6356H78.0123C79.1052 81.6356 80.0656 81.586 80.8935 81.4866C81.7545 81.3542 82.6321 81.1223 83.5262 80.7912C84.4535 80.4269 85.2151 79.8639 85.8112 79.1023C86.4073 78.3406 86.8047 77.3802 87.0034 76.2211ZM88.0466 61.4182C88.3446 59.7623 87.9638 58.5702 86.9041 57.8416C85.8775 57.113 84.2879 56.7488 82.1353 56.7488H73.492L72.0017 66.2366L81.1915 66.2863C83.0129 66.2863 84.5363 65.8889 85.7616 65.0941C87.02 64.2662 87.7816 63.0409 88.0466 61.4182ZM97.5546 68.3726C97.9851 65.657 98.9123 63.1733 100.336 60.9214C101.793 58.6695 103.515 56.8647 105.502 55.5069C107.489 54.116 109.592 53.0563 111.811 52.3277C114.063 51.5661 116.282 51.1852 118.467 51.1852C122.143 51.1852 125.306 51.9966 127.955 53.6193L127.161 58.8848C125.14 57.229 122.475 56.401 119.163 56.401C115.454 56.401 112.043 57.4939 108.93 59.6796C105.817 61.8321 103.929 64.9285 103.267 68.9687C102.903 71.1543 102.986 73.1082 103.515 74.8303C104.078 76.5523 104.939 77.9266 106.099 78.9532C107.258 79.9467 108.566 80.7084 110.023 81.2383C111.513 81.7681 113.053 82.033 114.643 82.033C118.186 82.033 121.349 81.1389 124.13 79.3506L123.236 85.2122C120.488 86.57 117.176 87.2489 113.301 87.2489C111.083 87.2489 108.947 86.8515 106.893 86.0567C104.873 85.2619 103.052 84.1194 101.429 82.6291C99.8396 81.1058 98.664 79.1188 97.9023 76.6682C97.1737 74.1845 97.0578 71.4193 97.5546 68.3726ZM145.358 78.8539C143.338 81.9999 141.351 84.1856 139.397 85.4109C137.444 86.6362 135.374 87.2489 133.188 87.2489C131.301 87.2489 129.579 86.9508 128.022 86.3547L128.817 81.3873C130.009 81.8509 131.251 82.0827 132.542 82.0827C135.192 82.0827 137.493 80.7581 139.447 78.1088L140.391 76.8669L130.208 51.831H136.169L143.868 71.8498L155.939 51.831H162.248L145.358 78.8539ZM204.448 86.6031H160.337L165.851 51.831H171.514L166.844 81.3376H180.405L185.075 51.831H190.738L186.068 81.3376H199.58L204.249 51.831H209.962L204.448 86.6031ZM240.143 51.831H246.502L232.394 69.1177L241.733 86.6031H235.722L227.625 71.5517H220.472L218.088 86.6031H212.425L217.939 51.831H223.602L221.317 66.3359H228.222L240.143 51.831ZM251.011 51.831H274.954L274.11 56.9971H255.83L254.339 66.485H271.129L270.335 71.6511H253.545L252.005 81.4369H270.533L269.738 86.6031H245.497L251.011 51.831Z" fill="black"/>
</g>
<g filter="url(#filter2_f_1_3687)">
<path d="M68.5742 56.6606H82.9798C86.457 56.6606 89.2388 57.4719 91.3251 59.0946C93.4114 60.6842 94.2228 62.9361 93.7591 65.8504C93.428 67.8042 92.6663 69.3938 91.4741 70.6191C90.2819 71.8444 88.8414 72.6889 87.1524 73.1525C87.9472 73.3843 88.6758 73.732 89.3381 74.1957C90.0004 74.6262 90.6296 75.1891 91.2257 75.8846C91.8218 76.58 92.2358 77.4742 92.4676 78.567C92.7325 79.6267 92.7656 80.8189 92.5669 82.1436C92.2689 83.965 91.6231 85.5214 90.6296 86.813C89.6362 88.1045 88.4109 89.0649 86.9537 89.6941C85.4966 90.3233 84.0395 90.7704 82.5824 91.0353C81.1584 91.3002 79.6185 91.4327 77.9627 91.4327H63.0603L68.5742 56.6606ZM87.0034 81.0507C87.169 80.1897 87.1359 79.428 86.9041 78.7657C86.7054 78.1034 86.4073 77.6066 86.0099 77.2755C85.6125 76.9112 85.0827 76.6297 84.4203 76.431C83.7911 76.1992 83.195 76.0502 82.6321 75.9839C82.0691 75.9177 81.4399 75.8846 80.7444 75.8846H71.207L69.518 86.4652H78.0123C79.1052 86.4652 80.0656 86.4156 80.8935 86.3162C81.7545 86.1837 82.6321 85.9519 83.5262 85.6208C84.4535 85.2565 85.2151 84.6935 85.8112 83.9318C86.4073 83.1702 86.8047 82.2098 87.0034 81.0507ZM88.0466 66.2478C88.3446 64.5919 87.9638 63.3998 86.9041 62.6712C85.8775 61.9426 84.2879 61.5784 82.1353 61.5784H73.492L72.0017 71.0662L81.1915 71.1158C83.0129 71.1158 84.5363 70.7184 85.7616 69.9237C87.02 69.0958 87.7816 67.8704 88.0466 66.2478ZM97.5546 73.2022C97.9851 70.4866 98.9123 68.0029 100.336 65.751C101.793 63.4991 103.515 61.6943 105.502 60.3365C107.489 58.9456 109.592 57.8859 111.811 57.1573C114.063 56.3957 116.282 56.0148 118.467 56.0148C122.143 56.0148 125.306 56.8262 127.955 58.4489L127.161 63.7144C125.14 62.0585 122.475 61.2306 119.163 61.2306C115.454 61.2306 112.043 62.3235 108.93 64.5091C105.817 66.6617 103.929 69.7581 103.267 73.7983C102.903 75.9839 102.986 77.9378 103.515 79.6598C104.078 81.3819 104.939 82.7562 106.099 83.7828C107.258 84.7763 108.566 85.538 110.023 86.0678C111.513 86.5977 113.053 86.8626 114.643 86.8626C118.186 86.8626 121.349 85.9685 124.13 84.1802L123.236 90.0418C120.488 91.3996 117.176 92.0784 113.301 92.0784C111.083 92.0784 108.947 91.6811 106.893 90.8863C104.873 90.0915 103.052 88.949 101.429 87.4587C99.8396 85.9354 98.664 83.9484 97.9023 81.4978C97.1737 79.0141 97.0578 76.2489 97.5546 73.2022ZM145.358 83.6835C143.338 86.8295 141.351 89.0152 139.397 90.2405C137.444 91.4658 135.374 92.0784 133.188 92.0784C131.301 92.0784 129.579 91.7804 128.022 91.1843L128.817 86.2169C130.009 86.6805 131.251 86.9123 132.542 86.9123C135.192 86.9123 137.493 85.5877 139.447 82.9384L140.391 81.6965L130.208 56.6606H136.169L143.868 76.6794L155.939 56.6606H162.248L145.358 83.6835ZM204.448 91.4327H160.337L165.851 56.6606H171.514L166.844 86.1672H180.405L185.075 56.6606H190.738L186.068 86.1672H199.58L204.249 56.6606H209.962L204.448 91.4327ZM240.143 56.6606H246.502L232.394 73.9473L241.733 91.4327H235.722L227.625 76.3813H220.472L218.088 91.4327H212.425L217.939 56.6606H223.602L221.317 71.1655H228.222L240.143 56.6606ZM251.011 56.6606H274.954L274.11 61.8267H255.83L254.339 71.3145H271.129L270.335 76.4807H253.545L252.005 86.2665H270.533L269.738 91.4327H245.497L251.011 56.6606Z" fill="black" fill-opacity="0.52"/>
</g>
<defs>
<filter id="filter0_f_1_3687" x="0.661476" y="15.8897" width="118.046" height="123.826" filterUnits="userSpaceOnUse" color-interpolation-filters="sRGB">
<feFlood flood-opacity="0" result="BackgroundImageFix"/>
<feBlend mode="normal" in="SourceGraphic" in2="BackgroundImageFix" result="shape"/>
<feGaussianBlur stdDeviation="6.2093" result="effect1_foregroundBlur_1_3687"/>
</filter>
<filter id="filter1_d_1_3687" x="60.3009" y="51.1852" width="217.413" height="41.583" filterUnits="userSpaceOnUse" color-interpolation-filters="sRGB">
<feFlood flood-opacity="0" result="BackgroundImageFix"/>
<feColorMatrix in="SourceAlpha" type="matrix" values="0 0 0 0 0 0 0 0 0 0 0 0 0 0 0 0 0 0 127 0" result="hardAlpha"/>
<feOffset dy="2.75969"/>
<feGaussianBlur stdDeviation="1.37984"/>
<feComposite in2="hardAlpha" operator="out"/>
<feColorMatrix type="matrix" values="0 0 0 0 0 0 0 0 0 0 0 0 0 0 0 0 0 0 0.25 0"/>
<feBlend mode="normal" in2="BackgroundImageFix" result="effect1_dropShadow_1_3687"/>
<feBlend mode="normal" in="SourceGraphic" in2="effect1_dropShadow_1_3687" result="shape"/>
</filter>
<filter id="filter2_f_1_3687" x="54.7815" y="47.7358" width="228.452" height="52.6217" filterUnits="userSpaceOnUse" color-interpolation-filters="sRGB">
<feFlood flood-opacity="0" result="BackgroundImageFix"/>
<feBlend mode="normal" in="SourceGraphic" in2="BackgroundImageFix" result="shape"/>
<feGaussianBlur stdDeviation="4.13953" result="effect1_foregroundBlur_1_3687"/>
</filter>
</defs>
</svg>
