<svg width="53" height="51" viewBox="0 0 53 51" fill="none" xmlns="http://www.w3.org/2000/svg">
<path d="M11.235 28.9084C7.40126 27.6699 4.76514 23.7658 4.69532 22.7363C4.44501 19.0457 34.3651 22.8997 47.8231 25.2009C48.2051 25.2662 48.2236 25.4382 47.822 25.4081C37.3686 24.6244 14.6756 30.0199 11.235 28.9084Z" fill="url(#paint0_linear_1_684)"/>
<path d="M38.0535 31.4276C37.4342 32.5408 38.3712 33.9467 38.9578 34.0128C40.5018 34.1866 45.3763 28.7839 48.0949 25.4944C48.1721 25.401 48.1309 25.3455 48.0395 25.432C45.6609 27.6839 38.6094 30.4285 38.0535 31.4276Z" fill="url(#paint1_linear_1_684)"/>
<path d="M39.272 19.0586C38.6469 18.054 39.2613 16.9864 39.7332 16.9998C40.9752 17.035 45.5344 22.1293 48.1069 25.2019C48.1799 25.2891 48.1522 25.3308 48.0683 25.2476C45.8847 23.0837 39.8329 19.9602 39.272 19.0586Z" fill="url(#paint2_linear_1_684)"/>
<defs>
<linearGradient id="paint0_linear_1_684" x1="6.52758" y1="24.8824" x2="47.276" y2="25.0848" gradientUnits="userSpaceOnUse">
<stop stop-opacity="0.3"/>
<stop offset="0.598958" stop-opacity="0.92"/>
</linearGradient>
<linearGradient id="paint1_linear_1_684" x1="37.9216" y1="33.7696" x2="47.4637" y2="25.3023" gradientUnits="userSpaceOnUse">
<stop stop-opacity="0.3"/>
<stop offset="0.598958" stop-opacity="0.92"/>
</linearGradient>
<linearGradient id="paint2_linear_1_684" x1="39.3365" y1="17.6244" x2="48.4714" y2="25.3131" gradientUnits="userSpaceOnUse">
<stop stop-opacity="0.3"/>
<stop offset="0.598958" stop-opacity="0.92"/>
</linearGradient>
</defs>
</svg>
