<svg width="398" height="310" viewBox="0 0 398 310" fill="none" xmlns="http://www.w3.org/2000/svg">
<circle cx="370.289" cy="287.701" r="5.02548" transform="rotate(89.6807 370.289 287.701)" fill="#85BD0E"/>
<circle cx="368.755" cy="122.492" r="5.02548" transform="rotate(89.6807 368.755 122.492)" fill="#85BD0E"/>
<circle cx="369.222" cy="206.203" r="5.02548" transform="rotate(89.6807 369.222 206.203)" fill="#85BD0E"/>
<circle cx="370.404" cy="308.361" r="5.02548" transform="rotate(89.6807 370.404 308.361)" fill="#85BD0E"/>
<circle cx="368.87" cy="143.152" r="5.02548" transform="rotate(89.6807 368.87 143.152)" fill="#85BD0E"/>
<circle cx="369.337" cy="226.863" r="5.02548" transform="rotate(89.6807 369.337 226.863)" fill="#85BD0E"/>
<circle cx="258.612" cy="288.324" r="5.02548" transform="rotate(89.6807 258.612 288.324)" fill="#85BD0E"/>
<circle cx="257.079" cy="123.115" r="5.02548" transform="rotate(89.6807 257.079 123.115)" fill="#85BD0E"/>
<circle cx="257.545" cy="206.826" r="5.02548" transform="rotate(89.6807 257.545 206.826)" fill="#85BD0E"/>
<circle cx="258.727" cy="308.983" r="5.02548" transform="rotate(89.6807 258.727 308.983)" fill="#85BD0E"/>
<circle cx="257.194" cy="143.774" r="5.02548" transform="rotate(89.6807 257.194 143.774)" fill="#85BD0E"/>
<circle cx="257.66" cy="227.486" r="5.02548" transform="rotate(89.6807 257.66 227.486)" fill="#85BD0E"/>
<circle cx="232.369" cy="288.469" r="4.46709" transform="rotate(89.6807 232.369 288.469)" fill="#85BD0E"/>
<circle cx="230.835" cy="123.259" r="4.46709" transform="rotate(89.6807 230.835 123.259)" fill="#85BD0E"/>
<circle cx="231.302" cy="206.971" r="4.46709" transform="rotate(89.6807 231.302 206.971)" fill="#85BD0E"/>
<circle cx="232.484" cy="309.129" r="4.46709" transform="rotate(89.6807 232.484 309.129)" fill="#85BD0E"/>
<circle cx="230.95" cy="143.92" r="4.46709" transform="rotate(89.6807 230.95 143.92)" fill="#85BD0E"/>
<circle cx="231.417" cy="227.631" r="4.46709" transform="rotate(89.6807 231.417 227.631)" fill="#85BD0E"/>
<circle cx="396.532" cy="287.555" r="4.46709" transform="rotate(89.6807 396.532 287.555)" fill="#85BD0E"/>
<circle cx="394.998" cy="122.345" r="4.46709" transform="rotate(89.6807 394.998 122.345)" fill="#85BD0E"/>
<circle cx="395.465" cy="206.057" r="4.46709" transform="rotate(89.6807 395.465 206.057)" fill="#85BD0E"/>
<circle cx="216.035" cy="206.984" r="3.76346" transform="rotate(89.6807 216.035 206.984)" fill="#85BD0E"/>
<circle cx="396.647" cy="308.215" r="4.46709" transform="rotate(89.6807 396.647 308.215)" fill="#85BD0E"/>
<circle cx="395.113" cy="143.005" r="4.46709" transform="rotate(89.6807 395.113 143.005)" fill="#85BD0E"/>
<circle cx="215.682" cy="143.655" r="3.76346" transform="rotate(89.6807 215.682 143.655)" fill="#85BD0E"/>
<circle cx="395.58" cy="226.717" r="4.46709" transform="rotate(89.6807 395.58 226.717)" fill="#85BD0E"/>
<circle cx="216.153" cy="228.093" r="3.76346" transform="rotate(89.6807 216.153 228.093)" fill="#85BD0E"/>
<circle cx="342.928" cy="287.853" r="5.58387" transform="rotate(89.6807 342.928 287.853)" fill="#85BD0E"/>
<circle cx="341.394" cy="122.645" r="5.58387" transform="rotate(89.6807 341.394 122.645)" fill="#85BD0E"/>
<circle cx="341.861" cy="206.356" r="5.58387" transform="rotate(89.6807 341.861 206.356)" fill="#85BD0E"/>
<circle cx="343.043" cy="308.514" r="5.58387" transform="rotate(89.6807 343.043 308.514)" fill="#85BD0E"/>
<circle cx="341.51" cy="143.305" r="5.58387" transform="rotate(89.6807 341.51 143.305)" fill="#85BD0E"/>
<circle cx="341.976" cy="227.015" r="5.58387" transform="rotate(89.6807 341.976 227.015)" fill="#85BD0E"/>
<circle cx="285.973" cy="288.171" r="5.58387" transform="rotate(89.6807 285.973 288.171)" fill="#85BD0E"/>
<circle cx="284.439" cy="122.962" r="5.58387" transform="rotate(89.6807 284.439 122.962)" fill="#85BD0E"/>
<circle cx="284.906" cy="206.673" r="5.58387" transform="rotate(89.6807 284.906 206.673)" fill="#85BD0E"/>
<circle cx="286.088" cy="308.83" r="5.58387" transform="rotate(89.6807 286.088 308.83)" fill="#85BD0E"/>
<circle cx="284.555" cy="143.621" r="5.58387" transform="rotate(89.6807 284.555 143.621)" fill="#85BD0E"/>
<circle cx="285.021" cy="227.332" r="5.58387" transform="rotate(89.6807 285.021 227.332)" fill="#85BD0E"/>
<circle cx="314.45" cy="288.012" r="6.14225" transform="rotate(89.6807 314.45 288.012)" fill="#85BD0E"/>
<circle cx="312.917" cy="122.803" r="6.14225" transform="rotate(89.6807 312.917 122.803)" fill="#85BD0E"/>
<circle cx="313.383" cy="206.515" r="6.14225" transform="rotate(89.6807 313.383 206.515)" fill="#85BD0E"/>
<circle cx="314.565" cy="308.673" r="6.14225" transform="rotate(89.6807 314.565 308.673)" fill="#85BD0E"/>
<circle cx="313.032" cy="143.463" r="6.14225" transform="rotate(89.6807 313.032 143.463)" fill="#85BD0E"/>
<circle cx="313.498" cy="227.175" r="6.14225" transform="rotate(89.6807 313.498 227.175)" fill="#85BD0E"/>
<circle cx="370.059" cy="246.38" r="5.02548" transform="rotate(89.6807 370.059 246.38)" fill="#85BD0E"/>
<circle cx="368.525" cy="81.1723" r="5.02548" transform="rotate(89.6807 368.525 81.1723)" fill="#85BD0E"/>
<circle cx="368.991" cy="164.883" r="5.02548" transform="rotate(89.6807 368.991 164.883)" fill="#85BD0E"/>
<circle cx="370.173" cy="267.042" r="5.02548" transform="rotate(89.6807 370.173 267.042)" fill="#85BD0E"/>
<circle cx="368.64" cy="101.833" r="5.02548" transform="rotate(89.6807 368.64 101.833)" fill="#85BD0E"/>
<circle cx="369.106" cy="185.543" r="5.02548" transform="rotate(89.6807 369.106 185.543)" fill="#85BD0E"/>
<circle cx="258.382" cy="247.004" r="5.02548" transform="rotate(89.6807 258.382 247.004)" fill="#85BD0E"/>
<circle cx="256.848" cy="81.7945" r="5.02548" transform="rotate(89.6807 256.848 81.7945)" fill="#85BD0E"/>
<circle cx="257.315" cy="165.505" r="5.02548" transform="rotate(89.6807 257.315 165.505)" fill="#85BD0E"/>
<circle cx="258.497" cy="267.664" r="5.02548" transform="rotate(89.6807 258.497 267.664)" fill="#85BD0E"/>
<circle cx="256.964" cy="102.455" r="5.02548" transform="rotate(89.6807 256.964 102.455)" fill="#85BD0E"/>
<circle cx="257.43" cy="186.166" r="5.02548" transform="rotate(89.6807 257.43 186.166)" fill="#85BD0E"/>
<circle cx="232.139" cy="247.149" r="4.46709" transform="rotate(89.6807 232.139 247.149)" fill="#85BD0E"/>
<circle cx="231.071" cy="165.651" r="4.46709" transform="rotate(89.6807 231.071 165.651)" fill="#85BD0E"/>
<circle cx="232.254" cy="267.809" r="4.46709" transform="rotate(89.6807 232.254 267.809)" fill="#85BD0E"/>
<circle cx="235.141" cy="103.523" r="4.46709" transform="rotate(89.6807 235.141 103.523)" fill="#85BD0E"/>
<circle cx="231.187" cy="186.311" r="4.46709" transform="rotate(89.6807 231.187 186.311)" fill="#85BD0E"/>
<circle cx="396.302" cy="246.235" r="4.46709" transform="rotate(89.6807 396.302 246.235)" fill="#85BD0E"/>
<circle cx="394.768" cy="81.0249" r="4.46709" transform="rotate(89.6807 394.768 81.0249)" fill="#85BD0E"/>
<circle cx="216.871" cy="246.944" r="3.76346" transform="rotate(89.6807 216.871 246.944)" fill="#85BD0E"/>
<circle cx="395.235" cy="164.737" r="4.46709" transform="rotate(89.6807 395.235 164.737)" fill="#85BD0E"/>
<circle cx="215.8" cy="164.765" r="3.76346" transform="rotate(89.6807 215.8 164.765)" fill="#85BD0E"/>
<circle cx="396.417" cy="266.895" r="4.46709" transform="rotate(89.6807 396.417 266.895)" fill="#85BD0E"/>
<circle cx="394.883" cy="101.686" r="4.46709" transform="rotate(89.6807 394.883 101.686)" fill="#85BD0E"/>
<circle cx="216.996" cy="269.461" r="3.76346" transform="rotate(89.6807 216.996 269.461)" fill="#85BD0E"/>
<circle cx="216.784" cy="289.784" r="3.76346" transform="rotate(89.6807 216.784 289.784)" fill="#85BD0E"/>
<circle cx="395.349" cy="185.397" r="4.46709" transform="rotate(89.6807 395.349 185.397)" fill="#85BD0E"/>
<circle cx="215.915" cy="185.513" r="3.76346" transform="rotate(89.6807 215.915 185.513)" fill="#85BD0E"/>
<circle cx="282.52" cy="63.0632" r="2.49169" transform="rotate(89.6807 282.52 63.0632)" fill="#85BD0E"/>
<circle cx="340.506" cy="37.5055" r="2.49169" transform="rotate(89.6807 340.506 37.5055)" fill="#85BD0E"/>
<circle cx="369.506" cy="37.5055" r="2.49169" transform="rotate(89.6807 369.506 37.5055)" fill="#85BD0E"/>
<circle cx="239.506" cy="83.5055" r="2.49169" transform="rotate(89.6807 239.506 83.5055)" fill="#85BD0E"/>
<circle cx="181.506" cy="162.506" r="2.49169" transform="rotate(89.6807 181.506 162.506)" fill="#85BD0E"/>
<circle cx="201.506" cy="186.506" r="2.49169" transform="rotate(89.6807 201.506 186.506)" fill="#85BD0E"/>
<circle cx="199.506" cy="163.506" r="2.49169" transform="rotate(89.6807 199.506 163.506)" fill="#85BD0E"/>
<circle cx="200.506" cy="142.506" r="2.49169" transform="rotate(89.6807 200.506 142.506)" fill="#85BD0E"/>
<circle cx="207.506" cy="122.506" r="2.49169" transform="rotate(89.6807 207.506 122.506)" fill="#85BD0E"/>
<circle cx="395.506" cy="37.5055" r="2.49169" transform="rotate(89.6807 395.506 37.5055)" fill="#85BD0E"/>
<circle cx="369.506" cy="20.5055" r="2.49169" transform="rotate(89.6807 369.506 20.5055)" fill="#85BD0E"/>
<circle cx="392.506" cy="21.5055" r="2.49169" transform="rotate(89.6807 392.506 21.5055)" fill="#85BD0E"/>
<circle cx="392.506" cy="3.50554" r="2.49169" transform="rotate(89.6807 392.506 3.50554)" fill="#85BD0E"/>
<circle cx="340.784" cy="60.7844" r="3.76346" transform="rotate(89.6807 340.784 60.7844)" fill="#85BD0E"/>
<circle cx="181.784" cy="186.784" r="3.76346" transform="rotate(89.6807 181.784 186.784)" fill="#85BD0E"/>
<circle cx="390.784" cy="60.7844" r="3.76346" transform="rotate(89.6807 390.784 60.7844)" fill="#85BD0E"/>
<circle cx="310.784" cy="60.7844" r="3.76346" transform="rotate(89.6807 310.784 60.7844)" fill="#85BD0E"/>
<circle cx="367.784" cy="60.7844" r="3.76346" transform="rotate(89.6807 367.784 60.7844)" fill="#85BD0E"/>
<circle cx="342.698" cy="246.533" r="5.58387" transform="rotate(89.6807 342.698 246.533)" fill="#85BD0E"/>
<circle cx="341.164" cy="81.3239" r="5.58387" transform="rotate(89.6807 341.164 81.3239)" fill="#85BD0E"/>
<circle cx="341.631" cy="165.035" r="5.58387" transform="rotate(89.6807 341.631 165.035)" fill="#85BD0E"/>
<circle cx="342.813" cy="267.193" r="5.58387" transform="rotate(89.6807 342.813 267.193)" fill="#85BD0E"/>
<circle cx="341.279" cy="101.984" r="5.58387" transform="rotate(89.6807 341.279 101.984)" fill="#85BD0E"/>
<circle cx="341.746" cy="185.695" r="5.58387" transform="rotate(89.6807 341.746 185.695)" fill="#85BD0E"/>
<circle cx="285.742" cy="246.852" r="5.58387" transform="rotate(89.6807 285.742 246.852)" fill="#85BD0E"/>
<circle cx="284.209" cy="81.6419" r="5.58387" transform="rotate(89.6807 284.209 81.6419)" fill="#85BD0E"/>
<circle cx="284.675" cy="165.353" r="5.58387" transform="rotate(89.6807 284.675 165.353)" fill="#85BD0E"/>
<circle cx="285.858" cy="267.511" r="5.58387" transform="rotate(89.6807 285.858 267.511)" fill="#85BD0E"/>
<circle cx="284.324" cy="102.302" r="5.58387" transform="rotate(89.6807 284.324 102.302)" fill="#85BD0E"/>
<circle cx="284.79" cy="186.013" r="5.58387" transform="rotate(89.6807 284.79 186.013)" fill="#85BD0E"/>
<circle cx="314.22" cy="246.692" r="6.14225" transform="rotate(89.6807 314.22 246.692)" fill="#85BD0E"/>
<circle cx="312.686" cy="81.4828" r="6.14225" transform="rotate(89.6807 312.686 81.4828)" fill="#85BD0E"/>
<circle cx="313.153" cy="165.194" r="6.14225" transform="rotate(89.6807 313.153 165.194)" fill="#85BD0E"/>
<circle cx="314.335" cy="267.351" r="6.14225" transform="rotate(89.6807 314.335 267.351)" fill="#85BD0E"/>
<circle cx="312.801" cy="102.143" r="6.14225" transform="rotate(89.6807 312.801 102.143)" fill="#85BD0E"/>
<circle cx="313.268" cy="185.854" r="6.14225" transform="rotate(89.6807 313.268 185.854)" fill="#85BD0E"/>
<circle cx="157.352" cy="247.746" r="5.02548" transform="rotate(89.6807 157.352 247.746)" fill="#85BD0E"/>
<circle cx="157.467" cy="268.406" r="5.02548" transform="rotate(89.6807 157.467 268.406)" fill="#85BD0E"/>
<circle cx="45.6757" cy="248.369" r="5.02548" transform="rotate(89.6807 45.6757 248.369)" fill="#85BD0E"/>
<circle cx="45.7904" cy="269.028" r="5.02548" transform="rotate(89.6807 45.7904 269.028)" fill="#85BD0E"/>
<circle cx="19.4321" cy="248.513" r="4.46709" transform="rotate(89.6807 19.4321 248.513)" fill="#85BD0E"/>
<circle cx="19.5474" cy="269.174" r="4.46709" transform="rotate(89.6807 19.5474 269.174)" fill="#85BD0E"/>
<circle cx="183.595" cy="247.599" r="4.46709" transform="rotate(89.6807 183.595 247.599)" fill="#85BD0E"/>
<circle cx="201.19" cy="248.109" r="3.76346" transform="rotate(89.6807 201.19 248.109)" fill="#85BD0E"/>
<circle cx="183.71" cy="268.259" r="4.46709" transform="rotate(89.6807 183.71 268.259)" fill="#85BD0E"/>
<circle cx="201.3" cy="267.812" r="3.76346" transform="rotate(89.6807 201.3 267.812)" fill="#85BD0E"/>
<circle cx="4.27881" cy="268.909" r="3.76346" transform="rotate(89.6807 4.27881 268.909)" fill="#85BD0E"/>
<circle cx="129.991" cy="247.899" r="5.58387" transform="rotate(89.6807 129.991 247.899)" fill="#85BD0E"/>
<circle cx="130.107" cy="268.559" r="5.58387" transform="rotate(89.6807 130.107 268.559)" fill="#85BD0E"/>
<circle cx="73.036" cy="248.216" r="5.58387" transform="rotate(89.6807 73.036 248.216)" fill="#85BD0E"/>
<circle cx="73.1514" cy="268.875" r="5.58387" transform="rotate(89.6807 73.1514 268.875)" fill="#85BD0E"/>
<circle cx="101.514" cy="248.057" r="6.14225" transform="rotate(89.6807 101.514 248.057)" fill="#85BD0E"/>
<circle cx="101.629" cy="268.717" r="6.14225" transform="rotate(89.6807 101.629 268.717)" fill="#85BD0E"/>
<circle cx="157.122" cy="206.426" r="5.02548" transform="rotate(89.6807 157.122 206.426)" fill="#85BD0E"/>
<circle cx="157.588" cy="290.136" r="5.02548" transform="rotate(89.6807 157.588 290.136)" fill="#85BD0E"/>
<circle cx="157.237" cy="227.087" r="5.02548" transform="rotate(89.6807 157.237 227.087)" fill="#85BD0E"/>
<circle cx="157.703" cy="310.797" r="5.02548" transform="rotate(89.6807 157.703 310.797)" fill="#85BD0E"/>
<circle cx="45.4452" cy="207.048" r="5.02548" transform="rotate(89.6807 45.4452 207.048)" fill="#85BD0E"/>
<circle cx="45.912" cy="290.759" r="5.02548" transform="rotate(89.6807 45.912 290.759)" fill="#85BD0E"/>
<circle cx="45.5605" cy="227.709" r="5.02548" transform="rotate(89.6807 45.5605 227.709)" fill="#85BD0E"/>
<circle cx="46.0268" cy="311.419" r="5.02548" transform="rotate(89.6807 46.0268 311.419)" fill="#85BD0E"/>
<circle cx="19.6682" cy="290.905" r="4.46709" transform="rotate(89.6807 19.6682 290.905)" fill="#85BD0E"/>
<circle cx="23.738" cy="228.777" r="4.46709" transform="rotate(89.6807 23.738 228.777)" fill="#85BD0E"/>
<circle cx="19.7837" cy="311.565" r="4.46709" transform="rotate(89.6807 19.7837 311.565)" fill="#85BD0E"/>
<circle cx="183.365" cy="206.279" r="4.46709" transform="rotate(89.6807 183.365 206.279)" fill="#85BD0E"/>
<circle cx="200.954" cy="205.891" r="3.76346" transform="rotate(89.6807 200.954 205.891)" fill="#85BD0E"/>
<circle cx="183.832" cy="289.991" r="4.46709" transform="rotate(89.6807 183.832 289.991)" fill="#85BD0E"/>
<circle cx="201.417" cy="288.92" r="3.76346" transform="rotate(89.6807 201.417 288.92)" fill="#85BD0E"/>
<circle cx="4.39649" cy="290.019" r="3.76346" transform="rotate(89.6807 4.39649 290.019)" fill="#85BD0E"/>
<circle cx="183.48" cy="226.94" r="4.46709" transform="rotate(89.6807 183.48 226.94)" fill="#85BD0E"/>
<circle cx="201.08" cy="228.408" r="3.76346" transform="rotate(89.6807 201.08 228.408)" fill="#85BD0E"/>
<circle cx="183.946" cy="310.65" r="4.46709" transform="rotate(89.6807 183.946 310.65)" fill="#85BD0E"/>
<circle cx="201.533" cy="309.669" r="3.76346" transform="rotate(89.6807 201.533 309.669)" fill="#85BD0E"/>
<circle cx="4.51221" cy="310.767" r="3.76346" transform="rotate(89.6807 4.51221 310.767)" fill="#85BD0E"/>
<circle cx="71.1167" cy="188.317" r="2.49169" transform="rotate(89.6807 71.1167 188.317)" fill="#85BD0E"/>
<circle cx="129.103" cy="162.759" r="2.49169" transform="rotate(89.6807 129.103 162.759)" fill="#85BD0E"/>
<circle cx="158.103" cy="162.759" r="2.49169" transform="rotate(89.6807 158.103 162.759)" fill="#85BD0E"/>
<circle cx="28.1026" cy="208.759" r="2.49169" transform="rotate(89.6807 28.1026 208.759)" fill="#85BD0E"/>
<circle cx="129.381" cy="186.038" r="3.76346" transform="rotate(89.6807 129.381 186.038)" fill="#85BD0E"/>
<circle cx="99.3813" cy="186.038" r="3.76346" transform="rotate(89.6807 99.3813 186.038)" fill="#85BD0E"/>
<circle cx="156.381" cy="186.038" r="3.76346" transform="rotate(89.6807 156.381 186.038)" fill="#85BD0E"/>
<circle cx="129.761" cy="206.578" r="5.58387" transform="rotate(89.6807 129.761 206.578)" fill="#85BD0E"/>
<circle cx="130.228" cy="290.289" r="5.58387" transform="rotate(89.6807 130.228 290.289)" fill="#85BD0E"/>
<circle cx="129.876" cy="227.238" r="5.58387" transform="rotate(89.6807 129.876 227.238)" fill="#85BD0E"/>
<circle cx="130.343" cy="310.949" r="5.58387" transform="rotate(89.6807 130.343 310.949)" fill="#85BD0E"/>
<circle cx="72.8057" cy="206.896" r="5.58387" transform="rotate(89.6807 72.8057 206.896)" fill="#85BD0E"/>
<circle cx="73.2723" cy="290.607" r="5.58387" transform="rotate(89.6807 73.2723 290.607)" fill="#85BD0E"/>
<circle cx="72.921" cy="227.556" r="5.58387" transform="rotate(89.6807 72.921 227.556)" fill="#85BD0E"/>
<circle cx="73.3873" cy="311.267" r="5.58387" transform="rotate(89.6807 73.3873 311.267)" fill="#85BD0E"/>
<circle cx="101.283" cy="206.737" r="6.14225" transform="rotate(89.6807 101.283 206.737)" fill="#85BD0E"/>
<circle cx="101.749" cy="290.448" r="6.14225" transform="rotate(89.6807 101.749 290.448)" fill="#85BD0E"/>
<circle cx="101.398" cy="227.396" r="6.14225" transform="rotate(89.6807 101.398 227.396)" fill="#85BD0E"/>
<circle cx="101.865" cy="311.108" r="6.14225" transform="rotate(89.6807 101.865 311.108)" fill="#85BD0E"/>
</svg>
