<svg width="227" height="288" viewBox="0 0 227 288" fill="none" xmlns="http://www.w3.org/2000/svg">
<circle cx="44.25" cy="66.5" r="9.75" fill="#CF4392"/>
<circle cx="113.25" cy="66.5" r="9.75" fill="#CF4392"/>
<circle cx="147.75" cy="66.5" r="9.75" fill="#CF4392"/>
<circle cx="182.25" cy="66.5" r="9.75" fill="#CF4392"/>
<circle cx="216.75" cy="66.75" r="9.75" fill="#CF4392" fill-opacity="0.68"/>
<circle cx="181.5" cy="101.75" r="7.5" fill="#CF4392"/>
<circle cx="216" cy="102" r="7.5" fill="#CF4392" fill-opacity="0.68"/>
<circle cx="181.5" cy="133.25" r="6" fill="#CF4392"/>
<circle cx="216" cy="133.5" r="6" fill="#CF4392" fill-opacity="0.68"/>
<circle cx="181.5" cy="-0.25" r="6" fill="#CF4392"/>
<circle cx="216" r="6" fill="#CF4392" fill-opacity="0.68"/>
<circle cx="183.75" cy="155" r="3.75" fill="#CF4392"/>
<circle cx="218.25" cy="155.25" r="3.75" fill="#CF4392" fill-opacity="0.68"/>
<circle cx="185.25" cy="174.75" r="3.75" fill="#CF4392" fill-opacity="0.61"/>
<circle cx="146.25" cy="155" r="3.75" fill="#CF4392"/>
<circle cx="147.75" cy="174.75" r="3.75" fill="#CF4392" fill-opacity="0.61"/>
<circle cx="145.75" cy="199.75" r="3.75" fill="#CF4392" fill-opacity="0.61"/>
<circle cx="77.25" cy="155" r="3.75" fill="#CF4392"/>
<circle cx="78.75" cy="174.75" r="3.75" fill="#CF4392" fill-opacity="0.61"/>
<circle cx="76.75" cy="199.75" r="3.75" fill="#CF4392" fill-opacity="0.61"/>
<circle cx="76.75" cy="218.75" r="3.75" fill="#CF4392" fill-opacity="0.22"/>
<circle cx="74.75" cy="238.75" r="3.75" fill="#CF4392" fill-opacity="0.22"/>
<circle cx="111.75" cy="155" r="3.75" fill="#CF4392"/>
<circle cx="113.25" cy="174.75" r="3.75" fill="#CF4392" fill-opacity="0.61"/>
<circle cx="111.25" cy="199.75" r="3.75" fill="#CF4392" fill-opacity="0.61"/>
<circle cx="111.25" cy="218.75" r="3.75" fill="#CF4392" fill-opacity="0.22"/>
<circle cx="42.75" cy="155" r="3.75" fill="#CF4392"/>
<circle cx="44.25" cy="174.75" r="3.75" fill="#CF4392" fill-opacity="0.61"/>
<circle cx="42.25" cy="199.75" r="3.75" fill="#CF4392" fill-opacity="0.61"/>
<circle cx="42.25" cy="218.75" r="3.75" fill="#CF4392" fill-opacity="0.22"/>
<circle cx="40.25" cy="238.75" r="3.75" fill="#CF4392" fill-opacity="0.22"/>
<circle cx="38.25" cy="263.75" r="3.75" fill="#CF4392" fill-opacity="0.22"/>
<circle cx="8.25" cy="155" r="3.75" fill="#CF4392"/>
<circle cx="9.75" cy="174.75" r="3.75" fill="#CF4392" fill-opacity="0.61"/>
<circle cx="7.75" cy="199.75" r="3.75" fill="#CF4392" fill-opacity="0.61"/>
<circle cx="7.75" cy="218.75" r="3.75" fill="#CF4392" fill-opacity="0.61"/>
<circle cx="5.75" cy="238.75" r="3.75" fill="#CF4392" fill-opacity="0.22"/>
<circle cx="3.75" cy="263.75" r="3.75" fill="#CF4392" fill-opacity="0.22"/>
<circle cx="2.75" cy="283.75" r="3.75" fill="#CF4392" fill-opacity="0.22"/>
<circle cx="147" cy="133.25" r="6" fill="#CF4392"/>
<circle cx="147" cy="-0.25" r="6" fill="#CF4392"/>
<circle cx="112.5" cy="133.25" r="6" fill="#CF4392"/>
<circle cx="112.5" cy="-0.25" r="6" fill="#CF4392"/>
<circle cx="79.5" cy="133.25" r="6" fill="#CF4392"/>
<circle cx="79.5" cy="-0.25" r="6" fill="#CF4392"/>
<circle cx="43.5" cy="133.25" r="6" fill="#CF4392"/>
<circle cx="43.5" cy="-0.25" r="6" fill="#CF4392"/>
<circle cx="9" cy="133.25" r="6" fill="#CF4392"/>
<circle cx="9" cy="-0.25" r="6" fill="#CF4392"/>
<circle cx="181.5" cy="31.25" r="7.5" fill="#CF4392"/>
<circle cx="216" cy="31.5" r="7.5" fill="#CF4392" fill-opacity="0.68"/>
<circle cx="147" cy="101.75" r="7.5" fill="#CF4392"/>
<circle cx="147" cy="31.25" r="7.5" fill="#CF4392"/>
<circle cx="112.5" cy="101.75" r="7.5" fill="#CF4392"/>
<circle cx="112.5" cy="31.25" r="7.5" fill="#CF4392"/>
<circle cx="79.5" cy="101.75" r="7.5" fill="#CF4392"/>
<circle cx="79.5" cy="31.25" r="7.5" fill="#CF4392"/>
<circle cx="43.5" cy="101.75" r="7.5" fill="#CF4392"/>
<circle cx="43.5" cy="31.25" r="7.5" fill="#CF4392"/>
<circle cx="9" cy="101.75" r="7.5" fill="#CF4392"/>
<circle cx="9" cy="31.25" r="7.5" fill="#CF4392"/>
<circle cx="78.75" cy="66.5" r="9.75" fill="#CF4392"/>
<circle cx="9.75" cy="66.5" r="9.75" fill="#CF4392"/>
</svg>
