<svg width="78" height="65" viewBox="0 0 78 65" fill="none" xmlns="http://www.w3.org/2000/svg">
<circle cx="26.232" cy="18.4837" r="1.23225" fill="#CF4392"/>
<circle cx="39.0474" cy="18.4837" r="1.23225" fill="#CF4392"/>
<circle cx="51.3699" cy="18.4837" r="1.23225" fill="#CF4392"/>
<circle cx="63.6925" cy="18.4837" r="1.23225" fill="#CF4392"/>
<circle cx="51.3699" cy="11.0904" r="1.23225" fill="#CF4392"/>
<circle cx="63.6925" cy="11.0904" r="1.23225" fill="#CF4392"/>
<circle cx="63.232" cy="1.23225" r="1.23225" fill="#CF4392"/>
<circle r="1.04167" transform="matrix(-1 0 0 1 76.0413 54.0417)" fill="#CF4392"/>
<circle cx="66.2072" cy="43.8334" r="2.73388" transform="rotate(-178.886 66.2072 43.8334)" fill="#CF4392"/>
<circle cx="65.9665" cy="34.5738" r="2.31328" transform="rotate(-178.886 65.9665 34.5738)" fill="#CF4392"/>
<circle cx="65.6069" cy="53.0765" r="2.31328" transform="rotate(-178.886 65.6069 53.0765)" fill="#CF4392"/>
<circle cx="65.8476" cy="62.336" r="1.89268" transform="rotate(-178.886 65.8476 62.336)" fill="#CF4392"/>
<circle cx="65.7099" cy="26.1551" r="1.89268" transform="rotate(-178.886 65.7099 26.1551)" fill="#CF4392"/>
<circle cx="55.6945" cy="43.629" r="2.73388" transform="rotate(-178.886 55.6945 43.629)" fill="#CF4392"/>
<circle cx="55.4538" cy="34.3695" r="2.31328" transform="rotate(-178.886 55.4538 34.3695)" fill="#CF4392"/>
<circle cx="55.0942" cy="52.8722" r="2.31328" transform="rotate(-178.886 55.0942 52.8722)" fill="#CF4392"/>
<circle cx="55.3346" cy="62.1317" r="1.89268" transform="rotate(-178.886 55.3346 62.1317)" fill="#CF4392"/>
<circle cx="55.1967" cy="25.9508" r="1.89268" transform="rotate(-178.886 55.1967 25.9508)" fill="#CF4392"/>
<circle cx="45.1816" cy="43.4244" r="2.73388" transform="rotate(-178.886 45.1816 43.4244)" fill="#CF4392"/>
<circle cx="44.9406" cy="34.1651" r="2.31328" transform="rotate(-178.886 44.9406 34.1651)" fill="#CF4392"/>
<circle cx="44.5812" cy="52.6678" r="2.31328" transform="rotate(-178.886 44.5812 52.6678)" fill="#CF4392"/>
<circle cx="44.822" cy="61.9276" r="1.89268" transform="rotate(-178.886 44.822 61.9276)" fill="#CF4392"/>
<circle cx="44.6838" cy="25.7464" r="1.89268" transform="rotate(-178.886 44.6838 25.7464)" fill="#CF4392"/>
<circle cx="34.6687" cy="43.2201" r="2.73388" transform="rotate(-178.886 34.6687 43.2201)" fill="#CF4392"/>
<circle cx="34.4279" cy="33.9608" r="2.31328" transform="rotate(-178.886 34.4279 33.9608)" fill="#CF4392"/>
<circle cx="34.0685" cy="52.4632" r="2.31328" transform="rotate(-178.886 34.0685 52.4632)" fill="#CF4392"/>
<circle cx="34.309" cy="61.723" r="1.89268" transform="rotate(-178.886 34.309 61.723)" fill="#CF4392"/>
<circle cx="34.1708" cy="25.5421" r="1.89268" transform="rotate(-178.886 34.1708 25.5421)" fill="#CF4392"/>
<circle cx="24.1557" cy="43.016" r="2.73388" transform="rotate(-178.886 24.1557 43.016)" fill="#CF4392"/>
<circle cx="23.915" cy="33.7565" r="2.31328" transform="rotate(-178.886 23.915 33.7565)" fill="#CF4392"/>
<circle cx="23.5554" cy="52.2591" r="2.31328" transform="rotate(-178.886 23.5554 52.2591)" fill="#CF4392"/>
<circle cx="23.7961" cy="61.5186" r="1.89268" transform="rotate(-178.886 23.7961 61.5186)" fill="#CF4392"/>
<circle cx="23.6579" cy="25.3377" r="1.89268" transform="rotate(-178.886 23.6579 25.3377)" fill="#CF4392"/>
<circle cx="13.6428" cy="42.8116" r="2.73388" transform="rotate(-178.886 13.6428 42.8116)" fill="#CF4392"/>
<circle cx="13.0424" cy="52.0545" r="2.31328" transform="rotate(-178.886 13.0424 52.0545)" fill="#CF4392"/>
<circle cx="2.52948" cy="51.8502" r="2.31328" transform="rotate(-178.886 2.52948 51.8502)" fill="#CF4392"/>
<circle cx="13.2829" cy="61.3143" r="1.89268" transform="rotate(-178.886 13.2829 61.3143)" fill="#CF4392"/>
<circle cx="2.76995" cy="61.1097" r="1.89268" transform="rotate(-178.886 2.76995 61.1097)" fill="#CF4392"/>
</svg>
