<svg width="178" height="146" viewBox="0 0 178 146" fill="none" xmlns="http://www.w3.org/2000/svg">
<circle cx="103.5" cy="37.5" r="2.5" fill="#CF4392"/>
<circle cx="128.5" cy="37.5" r="2.5" fill="#CF4392"/>
<circle cx="153.5" cy="37.5" r="2.5" fill="#CF4392"/>
<circle cx="154.413" cy="96.5331" r="6.5" transform="rotate(-178.886 154.413 96.5331)" fill="#CF4392"/>
<circle cx="153.841" cy="74.5179" r="5.5" transform="rotate(-178.886 153.841 74.5179)" fill="#CF4392"/>
<circle cx="152.986" cy="118.51" r="5.5" transform="rotate(-178.886 152.986 118.51)" fill="#CF4392"/>
<circle cx="153.558" cy="140.525" r="4.5" transform="rotate(-178.886 153.558 140.525)" fill="#CF4392"/>
<circle cx="153.23" cy="54.5023" r="4.5" transform="rotate(-178.886 153.23 54.5023)" fill="#CF4392"/>
<circle cx="129.418" cy="96.0472" r="6.5" transform="rotate(-178.886 129.418 96.0472)" fill="#CF4392"/>
<circle cx="128.846" cy="74.0321" r="5.5" transform="rotate(-178.886 128.846 74.0321)" fill="#CF4392"/>
<circle cx="127.99" cy="118.024" r="5.5" transform="rotate(-178.886 127.99 118.024)" fill="#CF4392"/>
<circle cx="128.562" cy="140.039" r="4.5" transform="rotate(-178.886 128.562 140.039)" fill="#CF4392"/>
<circle cx="128.235" cy="54.0164" r="4.5" transform="rotate(-178.886 128.235 54.0164)" fill="#CF4392"/>
<circle cx="104.422" cy="95.5614" r="6.5" transform="rotate(-178.886 104.422 95.5614)" fill="#CF4392"/>
<circle cx="103.851" cy="73.546" r="5.5" transform="rotate(-178.886 103.851 73.546)" fill="#CF4392"/>
<circle cx="102.995" cy="117.538" r="5.5" transform="rotate(-178.886 102.995 117.538)" fill="#CF4392"/>
<circle cx="103.567" cy="139.553" r="4.5" transform="rotate(-178.886 103.567 139.553)" fill="#CF4392"/>
<circle cx="103.239" cy="53.5303" r="4.5" transform="rotate(-178.886 103.239 53.5303)" fill="#CF4392"/>
<circle cx="79.4274" cy="95.0753" r="6.5" transform="rotate(-178.886 79.4274 95.0753)" fill="#CF4392"/>
<circle cx="78.855" cy="73.0602" r="5.5" transform="rotate(-178.886 78.855 73.0602)" fill="#CF4392"/>
<circle cx="78" cy="117.052" r="5.5" transform="rotate(-178.886 78 117.052)" fill="#CF4392"/>
<circle cx="78.5722" cy="139.067" r="4.5" transform="rotate(-178.886 78.5722 139.067)" fill="#CF4392"/>
<circle cx="78.2441" cy="53.0445" r="4.5" transform="rotate(-178.886 78.2441 53.0445)" fill="#CF4392"/>
<circle cx="54.4323" cy="94.5895" r="6.5" transform="rotate(-178.886 54.4323 94.5895)" fill="#CF4392"/>
<circle cx="53.8599" cy="72.5743" r="5.5" transform="rotate(-178.886 53.8599 72.5743)" fill="#CF4392"/>
<circle cx="53.0044" cy="116.566" r="5.5" transform="rotate(-178.886 53.0044 116.566)" fill="#CF4392"/>
<circle cx="53.5766" cy="138.581" r="4.5" transform="rotate(-178.886 53.5766 138.581)" fill="#CF4392"/>
<circle cx="53.249" cy="52.5586" r="4.5" transform="rotate(-178.886 53.249 52.5586)" fill="#CF4392"/>
<circle cx="29.4367" cy="94.1036" r="6.5" transform="rotate(-178.886 29.4367 94.1036)" fill="#CF4392"/>
<circle cx="28.0093" cy="116.08" r="5.5" transform="rotate(-178.886 28.0093 116.08)" fill="#CF4392"/>
<circle cx="3.01419" cy="115.594" r="5.5" transform="rotate(-178.886 3.01419 115.594)" fill="#CF4392"/>
<circle cx="28.5815" cy="138.095" r="4.5" transform="rotate(-178.886 28.5815 138.095)" fill="#CF4392"/>
<circle cx="3.58636" cy="137.609" r="4.5" transform="rotate(-178.886 3.58636 137.609)" fill="#CF4392"/>
<circle cx="175.5" cy="140.5" r="2.5" fill="#CF4392"/>
<circle cx="77.5" cy="37.5" r="2.5" fill="#CF4392"/>
<circle cx="128.5" cy="22.5" r="2.5" fill="#CF4392"/>
<circle cx="153.5" cy="22.5" r="2.5" fill="#CF4392"/>
<circle cx="148.5" cy="2.5" r="2.5" fill="#CF4392"/>
</svg>
