<svg width="55" height="322" viewBox="0 0 55 322" fill="none" xmlns="http://www.w3.org/2000/svg">
<circle cx="2.56701" cy="171.431" r="2.5" transform="rotate(91.5575 2.56701 171.431)" fill="#85BD0E" fill-opacity="0.61"/>
<circle cx="3.43273" cy="108.431" r="2.5" transform="rotate(91.5575 3.43273 108.431)" fill="#85BD0E" fill-opacity="0.61"/>
<circle cx="2.56701" cy="44.4311" r="2.5" transform="rotate(91.5575 2.56701 44.4311)" fill="#85BD0E" fill-opacity="0.61"/>
<circle cx="3.43273" cy="150.431" r="2.5" transform="rotate(91.5575 3.43273 150.431)" fill="#85BD0E" fill-opacity="0.61"/>
<circle cx="3.43273" cy="86.5671" r="2.5" transform="rotate(91.5575 3.43273 86.5671)" fill="#85BD0E" fill-opacity="0.61"/>
<circle cx="3.43273" cy="23.5671" r="2.5" transform="rotate(91.5575 3.43273 23.5671)" fill="#85BD0E" fill-opacity="0.61"/>
<circle cx="3.43273" cy="129.431" r="2.5" transform="rotate(91.5575 3.43273 129.431)" fill="#85BD0E" fill-opacity="0.61"/>
<circle cx="3.43273" cy="65.5671" r="2.5" transform="rotate(91.5575 3.43273 65.5671)" fill="#85BD0E" fill-opacity="0.61"/>
<circle cx="3.43273" cy="2.56711" r="2.5" transform="rotate(91.5575 3.43273 2.56711)" fill="#85BD0E" fill-opacity="0.61"/>
<circle cx="50.7013" cy="171.431" r="2.5" transform="rotate(91.5575 50.7013 171.431)" fill="#85BD0E" fill-opacity="0.61"/>
<circle cx="51.7013" cy="108.431" r="2.5" transform="rotate(91.5575 51.7013 108.431)" fill="#85BD0E" fill-opacity="0.61"/>
<circle cx="50.7013" cy="44.4311" r="2.5" transform="rotate(91.5575 50.7013 44.4311)" fill="#85BD0E" fill-opacity="0.61"/>
<circle cx="51.7013" cy="150.431" r="2.5" transform="rotate(91.5575 51.7013 150.431)" fill="#85BD0E" fill-opacity="0.61"/>
<circle cx="51.7013" cy="86.5671" r="2.5" transform="rotate(91.5575 51.7013 86.5671)" fill="#85BD0E" fill-opacity="0.61"/>
<circle cx="51.7013" cy="23.5671" r="2.5" transform="rotate(91.5575 51.7013 23.5671)" fill="#85BD0E" fill-opacity="0.61"/>
<circle cx="51.7013" cy="129.431" r="2.5" transform="rotate(91.5575 51.7013 129.431)" fill="#85BD0E" fill-opacity="0.61"/>
<circle cx="51.7013" cy="65.5671" r="2.5" transform="rotate(91.5575 51.7013 65.5671)" fill="#85BD0E" fill-opacity="0.61"/>
<circle cx="51.7013" cy="2.56711" r="2.5" transform="rotate(91.5575 51.7013 2.56711)" fill="#85BD0E" fill-opacity="0.61"/>
<circle cx="26.567" cy="171.431" r="2.5" transform="rotate(91.5575 26.567 171.431)" fill="#85BD0E" fill-opacity="0.61"/>
<circle cx="27.567" cy="108.431" r="2.5" transform="rotate(91.5575 27.567 108.431)" fill="#85BD0E" fill-opacity="0.61"/>
<circle cx="26.567" cy="44.4311" r="2.5" transform="rotate(91.5575 26.567 44.4311)" fill="#85BD0E" fill-opacity="0.61"/>
<circle cx="27.567" cy="150.431" r="2.5" transform="rotate(91.5575 27.567 150.431)" fill="#85BD0E" fill-opacity="0.61"/>
<circle cx="27.567" cy="86.5671" r="2.5" transform="rotate(91.5575 27.567 86.5671)" fill="#85BD0E" fill-opacity="0.61"/>
<circle cx="27.567" cy="23.5671" r="2.5" transform="rotate(91.5575 27.567 23.5671)" fill="#85BD0E" fill-opacity="0.61"/>
<circle cx="27.567" cy="129.431" r="2.5" transform="rotate(91.5575 27.567 129.431)" fill="#85BD0E" fill-opacity="0.61"/>
<circle cx="27.567" cy="65.5671" r="2.5" transform="rotate(91.5575 27.567 65.5671)" fill="#85BD0E" fill-opacity="0.61"/>
<circle cx="27.567" cy="2.56711" r="2.5" transform="rotate(91.5575 27.567 2.56711)" fill="#85BD0E" fill-opacity="0.61"/>
<circle cx="3.43273" cy="298.431" r="2.5" transform="rotate(91.5575 3.43273 298.431)" fill="#85BD0E" fill-opacity="0.61"/>
<circle cx="2.56701" cy="234.431" r="2.5" transform="rotate(91.5575 2.56701 234.431)" fill="#85BD0E" fill-opacity="0.61"/>
<circle cx="3.43273" cy="276.567" r="2.5" transform="rotate(91.5575 3.43273 276.567)" fill="#85BD0E" fill-opacity="0.61"/>
<circle cx="3.43273" cy="213.567" r="2.5" transform="rotate(91.5575 3.43273 213.567)" fill="#85BD0E" fill-opacity="0.61"/>
<circle cx="3.43273" cy="319.431" r="2.5" transform="rotate(91.5575 3.43273 319.431)" fill="#85BD0E" fill-opacity="0.61"/>
<circle cx="3.43273" cy="255.567" r="2.5" transform="rotate(91.5575 3.43273 255.567)" fill="#85BD0E" fill-opacity="0.61"/>
<circle cx="3.43273" cy="192.567" r="2.5" transform="rotate(91.5575 3.43273 192.567)" fill="#85BD0E" fill-opacity="0.61"/>
<circle cx="51.7013" cy="298.431" r="2.5" transform="rotate(91.5575 51.7013 298.431)" fill="#85BD0E" fill-opacity="0.61"/>
<circle cx="50.7013" cy="234.431" r="2.5" transform="rotate(91.5575 50.7013 234.431)" fill="#85BD0E" fill-opacity="0.61"/>
<circle cx="51.7013" cy="276.567" r="2.5" transform="rotate(91.5575 51.7013 276.567)" fill="#85BD0E" fill-opacity="0.61"/>
<circle cx="51.7013" cy="213.567" r="2.5" transform="rotate(91.5575 51.7013 213.567)" fill="#85BD0E" fill-opacity="0.61"/>
<circle cx="51.7013" cy="319.431" r="2.5" transform="rotate(91.5575 51.7013 319.431)" fill="#85BD0E" fill-opacity="0.61"/>
<circle cx="51.7013" cy="255.567" r="2.5" transform="rotate(91.5575 51.7013 255.567)" fill="#85BD0E" fill-opacity="0.61"/>
<circle cx="51.7013" cy="192.567" r="2.5" transform="rotate(91.5575 51.7013 192.567)" fill="#85BD0E" fill-opacity="0.61"/>
<circle cx="27.567" cy="298.431" r="2.5" transform="rotate(91.5575 27.567 298.431)" fill="#85BD0E" fill-opacity="0.61"/>
<circle cx="26.567" cy="234.431" r="2.5" transform="rotate(91.5575 26.567 234.431)" fill="#85BD0E" fill-opacity="0.61"/>
<circle cx="27.567" cy="276.567" r="2.5" transform="rotate(91.5575 27.567 276.567)" fill="#85BD0E" fill-opacity="0.61"/>
<circle cx="27.567" cy="213.567" r="2.5" transform="rotate(91.5575 27.567 213.567)" fill="#85BD0E" fill-opacity="0.61"/>
<circle cx="27.567" cy="319.431" r="2.5" transform="rotate(91.5575 27.567 319.431)" fill="#85BD0E" fill-opacity="0.61"/>
<circle cx="27.567" cy="255.567" r="2.5" transform="rotate(91.5575 27.567 255.567)" fill="#85BD0E" fill-opacity="0.61"/>
<circle cx="27.567" cy="192.567" r="2.5" transform="rotate(91.5575 27.567 192.567)" fill="#85BD0E" fill-opacity="0.61"/>
</svg>
