<svg width="115" height="83" viewBox="0 0 115 83" fill="none" xmlns="http://www.w3.org/2000/svg">
<circle cx="19.9572" cy="3.00974" r="2.58322" transform="rotate(91.3116 19.9572 3.00974)" fill="white" fill-opacity="0.55"/>
<circle cx="11.2093" cy="3.20697" r="2.1858" transform="rotate(91.3116 11.2093 3.20697)" fill="white" fill-opacity="0.55"/>
<circle cx="28.6888" cy="3.60688" r="2.1858" transform="rotate(91.3116 28.6888 3.60688)" fill="white" fill-opacity="0.55"/>
<circle cx="37.4378" cy="3.41007" r="1.78838" transform="rotate(91.3116 37.4378 3.41007)" fill="white" fill-opacity="0.55"/>
<circle cx="3.25489" cy="3.42227" r="1.78838" transform="rotate(91.3116 3.25489 3.42227)" fill="white" fill-opacity="0.55"/>
<circle cx="19.7299" cy="12.9419" r="2.58322" transform="rotate(91.3116 19.7299 12.9419)" fill="white" fill-opacity="0.55"/>
<circle cx="10.9818" cy="13.1381" r="2.1858" transform="rotate(91.3116 10.9818 13.1381)" fill="white" fill-opacity="0.55"/>
<circle cx="28.4615" cy="13.5385" r="2.1858" transform="rotate(91.3116 28.4615 13.5385)" fill="white" fill-opacity="0.55"/>
<circle cx="37.2105" cy="13.3412" r="1.78838" transform="rotate(91.3116 37.2105 13.3412)" fill="white" fill-opacity="0.55"/>
<circle cx="3.0276" cy="13.3539" r="1.78838" transform="rotate(91.3116 3.0276 13.3539)" fill="white" fill-opacity="0.55"/>
<circle cx="19.5026" cy="22.874" r="2.58322" transform="rotate(91.3116 19.5026 22.874)" fill="white" fill-opacity="0.55"/>
<circle cx="10.7545" cy="23.0698" r="2.1858" transform="rotate(91.3116 10.7545 23.0698)" fill="white" fill-opacity="0.55"/>
<circle cx="28.2335" cy="23.4711" r="2.1858" transform="rotate(91.3116 28.2335 23.4711)" fill="white" fill-opacity="0.55"/>
<circle cx="36.9829" cy="23.2738" r="1.78838" transform="rotate(91.3116 36.9829 23.2738)" fill="white" fill-opacity="0.55"/>
<circle cx="2.8003" cy="23.2851" r="1.78838" transform="rotate(91.3116 2.8003 23.2851)" fill="white" fill-opacity="0.55"/>
<circle cx="19.2761" cy="32.8047" r="2.58322" transform="rotate(91.3116 19.2761 32.8047)" fill="white" fill-opacity="0.55"/>
<circle cx="10.5272" cy="33.0019" r="2.1858" transform="rotate(91.3116 10.5272 33.0019)" fill="white" fill-opacity="0.55"/>
<circle cx="28.0064" cy="33.4018" r="2.1858" transform="rotate(91.3116 28.0064 33.4018)" fill="white" fill-opacity="0.55"/>
<circle cx="36.7559" cy="33.2045" r="1.78838" transform="rotate(91.3116 36.7559 33.2045)" fill="white" fill-opacity="0.55"/>
<circle cx="2.57276" cy="33.2167" r="1.78838" transform="rotate(91.3116 2.57276 33.2167)" fill="white" fill-opacity="0.55"/>
<circle cx="19.0485" cy="42.7363" r="2.58322" transform="rotate(91.3116 19.0485 42.7363)" fill="white" fill-opacity="0.55"/>
<circle cx="10.2997" cy="42.933" r="2.1858" transform="rotate(91.3116 10.2997 42.933)" fill="white" fill-opacity="0.55"/>
<circle cx="27.7794" cy="43.3334" r="2.1858" transform="rotate(91.3116 27.7794 43.3334)" fill="white" fill-opacity="0.55"/>
<circle cx="36.5283" cy="43.1361" r="1.78838" transform="rotate(91.3116 36.5283 43.1361)" fill="white" fill-opacity="0.55"/>
<circle cx="2.34547" cy="43.1483" r="1.78838" transform="rotate(91.3116 2.34547 43.1483)" fill="white" fill-opacity="0.55"/>
<circle cx="18.8212" cy="52.6675" r="2.58322" transform="rotate(91.3116 18.8212 52.6675)" fill="white" fill-opacity="0.55"/>
<circle cx="27.5521" cy="53.2651" r="2.1858" transform="rotate(91.3116 27.5521 53.2651)" fill="white" fill-opacity="0.55"/>
<circle cx="27.3246" cy="63.1967" r="2.1858" transform="rotate(91.3116 27.3246 63.1967)" fill="white" fill-opacity="0.55"/>
<circle cx="36.3008" cy="53.0678" r="1.78838" transform="rotate(91.3116 36.3008 53.0678)" fill="white" fill-opacity="0.55"/>
<circle cx="36.0735" cy="62.9994" r="1.78838" transform="rotate(91.3116 36.0735 62.9994)" fill="white" fill-opacity="0.55"/>
<ellipse rx="2.58322" ry="2.6625" transform="matrix(0.00209401 0.999998 0.999998 -0.00209401 63.069 3.41211)" fill="white" fill-opacity="0.55"/>
<ellipse rx="2.1858" ry="2.25288" transform="matrix(0.00209401 0.999998 0.999998 -0.00209401 72.0805 3.79094)" fill="white" fill-opacity="0.55"/>
<ellipse rx="2.1858" ry="2.25288" transform="matrix(0.00209401 0.999998 0.999998 -0.00209401 54.0597 3.82854)" fill="white" fill-opacity="0.55"/>
<ellipse rx="1.78838" ry="1.84327" transform="matrix(0.00209401 0.999998 0.999998 -0.00209401 45.0472 3.45005)" fill="white" fill-opacity="0.55"/>
<ellipse rx="1.78838" ry="1.84327" transform="matrix(0.00209401 0.999998 0.999998 -0.00209401 80.2716 4.17075)" fill="white" fill-opacity="0.55"/>
<ellipse rx="2.58322" ry="2.6625" transform="matrix(0.00209401 0.999998 0.999998 -0.00209401 63.0898 13.3467)" fill="white" fill-opacity="0.55"/>
<ellipse rx="2.1858" ry="2.25288" transform="matrix(0.00209401 0.999998 0.999998 -0.00209401 72.1012 13.725)" fill="white" fill-opacity="0.55"/>
<ellipse rx="2.1858" ry="2.25288" transform="matrix(0.00209401 0.999998 0.999998 -0.00209401 54.0795 13.7626)" fill="white" fill-opacity="0.55"/>
<ellipse rx="1.78838" ry="1.84327" transform="matrix(0.00209401 0.999998 0.999998 -0.00209401 45.0684 13.3841)" fill="white" fill-opacity="0.55"/>
<ellipse rx="1.78838" ry="1.84327" transform="matrix(0.00209401 0.999998 0.999998 -0.00209401 80.2923 14.1048)" fill="white" fill-opacity="0.55"/>
<ellipse rx="2.58322" ry="2.6625" transform="matrix(0.00209401 0.999998 0.999998 -0.00209401 63.1105 23.2817)" fill="white" fill-opacity="0.55"/>
<ellipse rx="2.1858" ry="2.25288" transform="matrix(0.00209401 0.999998 0.999998 -0.00209401 72.1222 23.6596)" fill="white" fill-opacity="0.55"/>
<ellipse rx="2.1858" ry="2.25288" transform="matrix(0.00209401 0.999998 0.999998 -0.00209401 54.1007 23.6977)" fill="white" fill-opacity="0.55"/>
<ellipse rx="1.78838" ry="1.84327" transform="matrix(0.00209401 0.999998 0.999998 -0.00209401 45.089 23.3192)" fill="white" fill-opacity="0.55"/>
<ellipse rx="1.78838" ry="1.84327" transform="matrix(0.00209401 0.999998 0.999998 -0.00209401 80.3133 24.0394)" fill="white" fill-opacity="0.55"/>
<ellipse rx="2.58322" ry="2.6625" transform="matrix(0.00209401 0.999998 0.999998 -0.00209401 63.1308 33.2148)" fill="white" fill-opacity="0.55"/>
<ellipse rx="2.1858" ry="2.25288" transform="matrix(0.00209401 0.999998 0.999998 -0.00209401 72.142 33.5932)" fill="white" fill-opacity="0.55"/>
<ellipse rx="2.1858" ry="2.25288" transform="matrix(0.00209401 0.999998 0.999998 -0.00209401 54.1212 33.6308)" fill="white" fill-opacity="0.55"/>
<ellipse rx="1.78838" ry="1.84327" transform="matrix(0.00209401 0.999998 0.999998 -0.00209401 45.1099 33.2528)" fill="white" fill-opacity="0.55"/>
<ellipse rx="1.78838" ry="1.84327" transform="matrix(0.00209401 0.999998 0.999998 -0.00209401 80.3341 33.9735)" fill="white" fill-opacity="0.55"/>
<ellipse rx="2.58322" ry="2.6625" transform="matrix(0.00209401 0.999998 0.999998 -0.00209401 63.1515 43.1489)" fill="white" fill-opacity="0.55"/>
<ellipse rx="2.1858" ry="2.25288" transform="matrix(0.00209401 0.999998 0.999998 -0.00209401 72.1627 43.5273)" fill="white" fill-opacity="0.55"/>
<ellipse rx="2.1858" ry="2.25288" transform="matrix(0.00209401 0.999998 0.999998 -0.00209401 54.142 43.5654)" fill="white" fill-opacity="0.55"/>
<ellipse rx="1.78838" ry="1.84327" transform="matrix(0.00209401 0.999998 0.999998 -0.00209401 45.1309 43.1869)" fill="white" fill-opacity="0.55"/>
<ellipse rx="1.78838" ry="1.84327" transform="matrix(0.00209401 0.999998 0.999998 -0.00209401 80.3546 43.9076)" fill="white" fill-opacity="0.55"/>
<ellipse rx="2.58322" ry="2.6625" transform="matrix(0.00209401 0.999998 0.999998 -0.00209401 63.1723 53.0835)" fill="white" fill-opacity="0.55"/>
<ellipse rx="2.1858" ry="2.25288" transform="matrix(0.00209401 0.999998 0.999998 -0.00209401 54.1627 53.4994)" fill="white" fill-opacity="0.55"/>
<ellipse rx="2.1858" ry="2.25288" transform="matrix(0.00209401 0.999998 0.999998 -0.00209401 54.1835 63.4335)" fill="white" fill-opacity="0.55"/>
<ellipse rx="1.78838" ry="1.84327" transform="matrix(0.00209401 0.999998 0.999998 -0.00209401 45.1517 53.1209)" fill="white" fill-opacity="0.55"/>
<ellipse rx="1.78838" ry="1.84327" transform="matrix(0.00209401 0.999998 0.999998 -0.00209401 45.1724 63.055)" fill="white" fill-opacity="0.55"/>
<circle cx="89.8442" cy="21.8663" r="0.993546" transform="rotate(1.75536 89.8442 21.8663)" fill="white" fill-opacity="0.55"/>
<circle cx="96.9983" cy="21.4932" r="0.993546" transform="rotate(1.75536 96.9983 21.4932)" fill="white" fill-opacity="0.55"/>
<circle cx="89.4783" cy="12.7252" r="0.993546" transform="rotate(1.75536 89.4783 12.7252)" fill="white" fill-opacity="0.55"/>
<circle cx="89.5059" cy="4.77791" r="0.993546" transform="rotate(1.75536 89.5059 4.77791)" fill="white" fill-opacity="0.55"/>
<circle cx="97.8521" cy="4.40926" r="0.993546" transform="rotate(1.75536 97.8521 4.40926)" fill="white" fill-opacity="0.55"/>
<circle cx="105.801" cy="4.03963" r="0.993546" transform="rotate(1.75536 105.801 4.03963)" fill="white" fill-opacity="0.55"/>
<circle cx="113.749" cy="3.66951" r="0.993546" transform="rotate(1.75536 113.749 3.66951)" fill="white" fill-opacity="0.55"/>
<circle cx="36.8188" cy="72.5465" r="0.993546" transform="rotate(1.75536 36.8188 72.5465)" fill="white" fill-opacity="0.55"/>
<circle cx="9.86792" cy="52.1876" r="0.993546" transform="rotate(1.75536 9.86792 52.1876)" fill="white" fill-opacity="0.55"/>
<circle cx="45.9268" cy="81.7174" r="0.993546" transform="rotate(1.75536 45.9268 81.7174)" fill="white" fill-opacity="0.55"/>
<circle cx="45.9583" cy="72.5782" r="0.993546" transform="rotate(1.75536 45.9583 72.5782)" fill="white" fill-opacity="0.55"/>
<circle cx="89.4099" cy="32.5938" r="0.993546" transform="rotate(1.75536 89.4099 32.5938)" fill="white" fill-opacity="0.55"/>
<circle cx="97.0283" cy="12.7515" r="0.993546" transform="rotate(1.75536 97.0283 12.7515)" fill="white" fill-opacity="0.55"/>
<circle cx="104.977" cy="12.3814" r="0.993546" transform="rotate(1.75536 104.977 12.3814)" fill="white" fill-opacity="0.55"/>
</svg>
