<svg width="91" height="29" viewBox="0 0 91 29" fill="none" xmlns="http://www.w3.org/2000/svg">
<ellipse rx="1.17941" ry="1.28662" transform="matrix(0.999739 0.0228608 -0.0181212 0.999836 19.0484 27.0912)" fill="#CF4392" fill-opacity="0.33"/>
<ellipse rx="1.17941" ry="1.28662" transform="matrix(0.999739 0.0228608 -0.0181212 0.999836 9.13943 26.7128)" fill="#CF4392" fill-opacity="0.33"/>
<ellipse rx="1.17941" ry="1.28662" transform="matrix(0.999739 0.0228608 -0.0181212 0.999836 -0.766816 26.7802)" fill="#CF4392" fill-opacity="0.33"/>
<ellipse rx="1.17941" ry="1.28662" transform="matrix(0.999739 0.0228608 -0.0181212 0.999836 18.8802 2.31825)" fill="#CF4392" fill-opacity="0.33"/>
<ellipse rx="1.17941" ry="1.28662" transform="matrix(0.999739 0.0228608 -0.0181212 0.999836 8.97049 1.87099)" fill="#CF4392" fill-opacity="0.33"/>
<ellipse rx="1.17941" ry="1.28662" transform="matrix(0.999739 0.0228608 -0.0181212 0.999836 -0.935761 1.93837)" fill="#CF4392" fill-opacity="0.33"/>
<ellipse rx="1.17941" ry="1.28662" transform="matrix(0.999739 0.0228608 -0.0181212 0.999836 18.9646 14.7392)" fill="#CF4392" fill-opacity="0.33"/>
<ellipse rx="1.17941" ry="1.28662" transform="matrix(0.999739 0.0228608 -0.0181212 0.999836 9.05496 14.2919)" fill="#CF4392" fill-opacity="0.33"/>
<ellipse rx="1.17941" ry="1.28662" transform="matrix(0.999739 0.0228608 -0.0181212 0.999836 -0.851044 14.3593)" fill="#CF4392" fill-opacity="0.33"/>
<ellipse rx="1.17941" ry="1.28662" transform="matrix(0.999739 0.0228608 -0.0181212 0.999836 78.9541 26.2387)" fill="#CF4392" fill-opacity="0.33"/>
<ellipse rx="1.17941" ry="1.28662" transform="matrix(0.999739 0.0228608 -0.0181212 0.999836 48.7671 26.8895)" fill="#CF4392" fill-opacity="0.33"/>
<ellipse rx="1.17941" ry="1.28662" transform="matrix(0.999739 0.0228608 -0.0181212 0.999836 68.6404 26.309)" fill="#CF4392" fill-opacity="0.33"/>
<ellipse rx="1.17941" ry="1.28662" transform="matrix(0.999739 0.0228608 -0.0181212 0.999836 38.9219 26.5106)" fill="#CF4392" fill-opacity="0.33"/>
<ellipse rx="1.17941" ry="1.28662" transform="matrix(0.999739 0.0228608 -0.0181212 0.999836 88.8604 26.1713)" fill="#CF4392" fill-opacity="0.33"/>
<ellipse rx="1.17941" ry="1.28662" transform="matrix(0.999739 0.0228608 -0.0181212 0.999836 58.7344 26.3759)" fill="#CF4392" fill-opacity="0.33"/>
<ellipse rx="1.17941" ry="1.28662" transform="matrix(0.999739 0.0228608 -0.0181212 0.999836 29.0159 26.578)" fill="#CF4392" fill-opacity="0.33"/>
<ellipse rx="1.17941" ry="1.28662" transform="matrix(0.999739 0.0228608 -0.0181212 0.999836 78.7854 1.39638)" fill="#CF4392" fill-opacity="0.33"/>
<ellipse rx="1.17941" ry="1.28662" transform="matrix(0.999739 0.0228608 -0.0181212 0.999836 48.5987 2.1161)" fill="#CF4392" fill-opacity="0.33"/>
<ellipse rx="1.17941" ry="1.28662" transform="matrix(0.999739 0.0228608 -0.0181212 0.999836 68.4715 1.46669)" fill="#CF4392" fill-opacity="0.33"/>
<ellipse rx="1.17941" ry="1.28662" transform="matrix(0.999739 0.0228608 -0.0181212 0.999836 38.7532 1.66835)" fill="#CF4392" fill-opacity="0.33"/>
<ellipse rx="1.17941" ry="1.28662" transform="matrix(0.999739 0.0228608 -0.0181212 0.999836 88.6914 1.32899)" fill="#CF4392" fill-opacity="0.33"/>
<ellipse rx="1.17941" ry="1.28662" transform="matrix(0.999739 0.0228608 -0.0181212 0.999836 58.5657 1.53407)" fill="#CF4392" fill-opacity="0.33"/>
<ellipse rx="1.17941" ry="1.28662" transform="matrix(0.999739 0.0228608 -0.0181212 0.999836 28.847 1.73573)" fill="#CF4392" fill-opacity="0.33"/>
<ellipse rx="1.17941" ry="1.28662" transform="matrix(0.999739 0.0228608 -0.0181212 0.999836 78.8699 13.8178)" fill="#CF4392" fill-opacity="0.33"/>
<ellipse rx="1.17941" ry="1.28662" transform="matrix(0.999739 0.0228608 -0.0181212 0.999836 48.6829 14.5375)" fill="#CF4392" fill-opacity="0.33"/>
<ellipse rx="1.17941" ry="1.28662" transform="matrix(0.999739 0.0228608 -0.0181212 0.999836 68.5562 13.8876)" fill="#CF4392" fill-opacity="0.33"/>
<ellipse rx="1.17941" ry="1.28662" transform="matrix(0.999739 0.0228608 -0.0181212 0.999836 38.8377 14.0897)" fill="#CF4392" fill-opacity="0.33"/>
<ellipse rx="1.17941" ry="1.28662" transform="matrix(0.999739 0.0228608 -0.0181212 0.999836 88.7759 13.7504)" fill="#CF4392" fill-opacity="0.33"/>
<ellipse rx="1.17941" ry="1.28662" transform="matrix(0.999739 0.0228608 -0.0181212 0.999836 58.6497 13.955)" fill="#CF4392" fill-opacity="0.33"/>
<ellipse rx="1.17941" ry="1.28662" transform="matrix(0.999739 0.0228608 -0.0181212 0.999836 28.9314 14.1571)" fill="#CF4392" fill-opacity="0.33"/>
</svg>
