<svg width="222" height="76" viewBox="0 0 222 76" fill="none" xmlns="http://www.w3.org/2000/svg">
<ellipse rx="3.08253" ry="3.36272" transform="matrix(0.999739 0.0228608 -0.0181212 0.999836 35.8299 70.8067)" fill="#CF4392" fill-opacity="0.33"/>
<ellipse rx="3.08253" ry="3.36272" transform="matrix(0.999739 0.0228608 -0.0181212 0.999836 9.93095 69.8184)" fill="#CF4392" fill-opacity="0.33"/>
<ellipse rx="3.08253" ry="3.36272" transform="matrix(0.999739 0.0228608 -0.0181212 0.999836 35.3899 6.05959)" fill="#CF4392" fill-opacity="0.33"/>
<ellipse rx="3.08253" ry="3.36272" transform="matrix(0.999739 0.0228608 -0.0181212 0.999836 9.48954 4.89016)" fill="#CF4392" fill-opacity="0.33"/>
<ellipse rx="3.08253" ry="3.36272" transform="matrix(0.999739 0.0228608 -0.0181212 0.999836 35.6101 38.5235)" fill="#CF4392" fill-opacity="0.33"/>
<ellipse rx="3.08253" ry="3.36272" transform="matrix(0.999739 0.0228608 -0.0181212 0.999836 9.71024 37.354)" fill="#CF4392" fill-opacity="0.33"/>
<ellipse rx="3.08253" ry="3.36272" transform="matrix(0.999739 0.0228608 -0.0181212 0.999836 192.4 68.5781)" fill="#CF4392" fill-opacity="0.33"/>
<ellipse rx="3.08253" ry="3.36272" transform="matrix(0.999739 0.0228608 -0.0181212 0.999836 113.502 70.2788)" fill="#CF4392" fill-opacity="0.33"/>
<ellipse rx="3.08253" ry="3.36272" transform="matrix(0.999739 0.0228608 -0.0181212 0.999836 165.444 68.7617)" fill="#CF4392" fill-opacity="0.33"/>
<ellipse rx="3.08253" ry="3.36272" transform="matrix(0.999739 0.0228608 -0.0181212 0.999836 87.7713 69.2891)" fill="#CF4392" fill-opacity="0.33"/>
<ellipse rx="3.08253" ry="3.36272" transform="matrix(0.999739 0.0228608 -0.0181212 0.999836 218.291 68.4024)" fill="#CF4392" fill-opacity="0.33"/>
<ellipse rx="3.08253" ry="3.36272" transform="matrix(0.999739 0.0228608 -0.0181212 0.999836 139.553 68.9375)" fill="#CF4392" fill-opacity="0.33"/>
<ellipse rx="3.08253" ry="3.36272" transform="matrix(0.999739 0.0228608 -0.0181212 0.999836 61.8802 69.4654)" fill="#CF4392" fill-opacity="0.33"/>
<ellipse rx="3.08253" ry="3.36272" transform="matrix(0.999739 0.0228608 -0.0181212 0.999836 191.959 3.65041)" fill="#CF4392" fill-opacity="0.33"/>
<ellipse rx="3.08253" ry="3.36272" transform="matrix(0.999739 0.0228608 -0.0181212 0.999836 113.062 5.53176)" fill="#CF4392" fill-opacity="0.33"/>
<ellipse rx="3.08253" ry="3.36272" transform="matrix(0.999739 0.0228608 -0.0181212 0.999836 165.003 3.83352)" fill="#CF4392" fill-opacity="0.33"/>
<ellipse rx="3.08253" ry="3.36272" transform="matrix(0.999739 0.0228608 -0.0181212 0.999836 87.3299 4.36135)" fill="#CF4392" fill-opacity="0.33"/>
<ellipse rx="3.08253" ry="3.36272" transform="matrix(0.999739 0.0228608 -0.0181212 0.999836 217.849 3.47463)" fill="#CF4392" fill-opacity="0.33"/>
<ellipse rx="3.08253" ry="3.36272" transform="matrix(0.999739 0.0228608 -0.0181212 0.999836 139.112 4.00979)" fill="#CF4392" fill-opacity="0.33"/>
<ellipse rx="3.08253" ry="3.36272" transform="matrix(0.999739 0.0228608 -0.0181212 0.999836 61.4392 4.53762)" fill="#CF4392" fill-opacity="0.33"/>
<ellipse rx="3.08253" ry="3.36272" transform="matrix(0.999739 0.0228608 -0.0181212 0.999836 192.179 36.1143)" fill="#CF4392" fill-opacity="0.33"/>
<ellipse rx="3.08253" ry="3.36272" transform="matrix(0.999739 0.0228608 -0.0181212 0.999836 113.283 37.9956)" fill="#CF4392" fill-opacity="0.33"/>
<ellipse rx="3.08253" ry="3.36272" transform="matrix(0.999739 0.0228608 -0.0181212 0.999836 165.223 36.2974)" fill="#CF4392" fill-opacity="0.33"/>
<ellipse rx="3.08253" ry="3.36272" transform="matrix(0.999739 0.0228608 -0.0181212 0.999836 87.5506 36.8252)" fill="#CF4392" fill-opacity="0.33"/>
<ellipse rx="3.08253" ry="3.36272" transform="matrix(0.999739 0.0228608 -0.0181212 0.999836 218.07 35.9385)" fill="#CF4392" fill-opacity="0.33"/>
<ellipse rx="3.08253" ry="3.36272" transform="matrix(0.999739 0.0228608 -0.0181212 0.999836 139.332 36.4737)" fill="#CF4392" fill-opacity="0.33"/>
<ellipse rx="3.08253" ry="3.36272" transform="matrix(0.999739 0.0228608 -0.0181212 0.999836 61.66 37.0015)" fill="#CF4392" fill-opacity="0.33"/>
</svg>
