<svg width="48" height="285" viewBox="0 0 48 285" fill="none" xmlns="http://www.w3.org/2000/svg">
<g filter="url(#filter0_d_1_3067)">
<ellipse rx="2.21247" ry="1.80462" transform="matrix(-0.0221659 0.999754 -0.999444 -0.0333276 5.85266 151.733)" fill="white" fill-opacity="0.53"/>
<ellipse rx="2.21247" ry="1.80462" transform="matrix(-0.0221659 0.999754 -0.999444 -0.0333276 6.47742 95.9721)" fill="white" fill-opacity="0.53"/>
<ellipse rx="2.21247" ry="1.80462" transform="matrix(-0.0221659 0.999754 -0.999444 -0.0333276 5.85266 39.3256)" fill="white" fill-opacity="0.53"/>
<ellipse rx="2.21247" ry="1.80462" transform="matrix(-0.0221659 0.999754 -0.999444 -0.0333276 6.47742 133.146)" fill="white" fill-opacity="0.53"/>
<ellipse rx="2.21247" ry="1.80462" transform="matrix(-0.0221659 0.999754 -0.999444 -0.0333276 6.47742 76.6205)" fill="white" fill-opacity="0.53"/>
<ellipse rx="2.21247" ry="1.80462" transform="matrix(-0.0221659 0.999754 -0.999444 -0.0333276 6.47742 20.8593)" fill="white" fill-opacity="0.53"/>
<ellipse rx="2.21247" ry="1.80462" transform="matrix(-0.0221659 0.999754 -0.999444 -0.0333276 6.47742 114.559)" fill="white" fill-opacity="0.53"/>
<ellipse rx="2.21247" ry="1.80462" transform="matrix(-0.0221659 0.999754 -0.999444 -0.0333276 6.47742 58.0331)" fill="white" fill-opacity="0.53"/>
<ellipse rx="2.21247" ry="1.80462" transform="matrix(-0.0222904 0.999752 -0.999451 -0.0331416 6.47713 2.27174)" fill="white" fill-opacity="0.53"/>
<ellipse rx="2.21247" ry="1.80462" transform="matrix(-0.0221659 0.999754 -0.999444 -0.0333276 40.5919 151.733)" fill="white" fill-opacity="0.53"/>
<ellipse rx="2.21247" ry="1.80462" transform="matrix(-0.0221659 0.999754 -0.999444 -0.0333276 41.3136 95.9721)" fill="white" fill-opacity="0.53"/>
<ellipse rx="2.21247" ry="1.80462" transform="matrix(-0.0221659 0.999754 -0.999444 -0.0333276 40.5919 39.3256)" fill="white" fill-opacity="0.53"/>
<ellipse rx="2.21247" ry="1.80462" transform="matrix(-0.0221659 0.999754 -0.999444 -0.0333276 41.3136 133.146)" fill="white" fill-opacity="0.53"/>
<ellipse rx="2.21247" ry="1.80462" transform="matrix(-0.0221659 0.999754 -0.999444 -0.0333276 41.3136 76.6205)" fill="white" fill-opacity="0.53"/>
<ellipse rx="2.21247" ry="1.80462" transform="matrix(-0.0221659 0.999754 -0.999444 -0.0333276 41.3136 20.8593)" fill="white" fill-opacity="0.53"/>
<ellipse rx="2.21247" ry="1.80462" transform="matrix(-0.0221659 0.999754 -0.999444 -0.0333276 41.3136 114.559)" fill="white" fill-opacity="0.53"/>
<ellipse rx="2.21247" ry="1.80462" transform="matrix(-0.0221659 0.999754 -0.999444 -0.0333276 41.3136 58.0331)" fill="white" fill-opacity="0.53"/>
<ellipse rx="2.21247" ry="1.80462" transform="matrix(-0.0222904 0.999752 -0.999451 -0.0331416 41.3133 2.27174)" fill="white" fill-opacity="0.53"/>
<ellipse rx="2.21247" ry="1.80462" transform="matrix(-0.0221659 0.999754 -0.999444 -0.0333276 23.1737 151.733)" fill="white" fill-opacity="0.53"/>
<ellipse rx="2.21247" ry="1.80462" transform="matrix(-0.0221659 0.999754 -0.999444 -0.0333276 23.8956 95.9721)" fill="white" fill-opacity="0.53"/>
<ellipse rx="2.21247" ry="1.80462" transform="matrix(-0.0221659 0.999754 -0.999444 -0.0333276 23.1737 39.3256)" fill="white" fill-opacity="0.53"/>
<ellipse rx="2.21247" ry="1.80462" transform="matrix(-0.0221659 0.999754 -0.999444 -0.0333276 23.8956 133.146)" fill="white" fill-opacity="0.53"/>
<ellipse rx="2.21247" ry="1.80462" transform="matrix(-0.0221659 0.999754 -0.999444 -0.0333276 23.8956 76.6205)" fill="white" fill-opacity="0.53"/>
<ellipse rx="2.21247" ry="1.80462" transform="matrix(-0.0221659 0.999754 -0.999444 -0.0333276 23.8956 20.8593)" fill="white" fill-opacity="0.53"/>
<ellipse rx="2.21247" ry="1.80462" transform="matrix(-0.0221659 0.999754 -0.999444 -0.0333276 23.8956 114.559)" fill="white" fill-opacity="0.53"/>
<ellipse rx="2.21247" ry="1.80462" transform="matrix(-0.0221659 0.999754 -0.999444 -0.0333276 23.8956 58.0331)" fill="white" fill-opacity="0.53"/>
<ellipse rx="2.21247" ry="1.80462" transform="matrix(-0.0222904 0.999752 -0.999451 -0.0331416 23.8953 2.27174)" fill="white" fill-opacity="0.53"/>
<ellipse rx="2.21247" ry="1.80462" transform="matrix(-0.0221659 0.999754 -0.999444 -0.0333276 6.47742 264.141)" fill="white" fill-opacity="0.53"/>
<ellipse rx="2.21247" ry="1.80462" transform="matrix(-0.0221659 0.999754 -0.999444 -0.0333276 5.85266 207.495)" fill="white" fill-opacity="0.53"/>
<ellipse rx="2.21247" ry="1.80462" transform="matrix(-0.0221659 0.999754 -0.999444 -0.0333276 6.47742 244.789)" fill="white" fill-opacity="0.53"/>
<ellipse rx="2.21247" ry="1.80462" transform="matrix(-0.0221659 0.999754 -0.999444 -0.0333276 6.47742 189.028)" fill="white" fill-opacity="0.53"/>
<ellipse rx="2.21247" ry="1.80462" transform="matrix(-0.0221659 0.999754 -0.999444 -0.0333276 6.47742 282.728)" fill="white" fill-opacity="0.53"/>
<ellipse rx="2.21247" ry="1.80462" transform="matrix(-0.0221659 0.999754 -0.999444 -0.0333276 6.47742 226.202)" fill="white" fill-opacity="0.53"/>
<ellipse rx="2.21247" ry="1.80462" transform="matrix(-0.0221659 0.999754 -0.999444 -0.0333276 6.47742 170.441)" fill="white" fill-opacity="0.53"/>
<ellipse rx="2.21247" ry="1.80462" transform="matrix(-0.0221659 0.999754 -0.999444 -0.0333276 41.3136 264.141)" fill="white" fill-opacity="0.53"/>
<ellipse rx="2.21247" ry="1.80462" transform="matrix(-0.0221659 0.999754 -0.999444 -0.0333276 40.5919 207.495)" fill="white" fill-opacity="0.53"/>
<ellipse rx="2.21247" ry="1.80462" transform="matrix(-0.0221659 0.999754 -0.999444 -0.0333276 41.3136 244.789)" fill="white" fill-opacity="0.53"/>
<ellipse rx="2.21247" ry="1.80462" transform="matrix(-0.0221659 0.999754 -0.999444 -0.0333276 41.3136 189.028)" fill="white" fill-opacity="0.53"/>
<ellipse rx="2.21247" ry="1.80462" transform="matrix(-0.0221659 0.999754 -0.999444 -0.0333276 41.3136 282.728)" fill="white" fill-opacity="0.53"/>
<ellipse rx="2.21247" ry="1.80462" transform="matrix(-0.0221659 0.999754 -0.999444 -0.0333276 41.3136 226.202)" fill="white" fill-opacity="0.53"/>
<ellipse rx="2.21247" ry="1.80462" transform="matrix(-0.0221659 0.999754 -0.999444 -0.0333276 41.3136 170.441)" fill="white" fill-opacity="0.53"/>
<ellipse rx="2.21247" ry="1.80462" transform="matrix(-0.0221659 0.999754 -0.999444 -0.0333276 23.8956 264.141)" fill="white" fill-opacity="0.53"/>
<ellipse rx="2.21247" ry="1.80462" transform="matrix(-0.0221659 0.999754 -0.999444 -0.0333276 23.1737 207.495)" fill="white" fill-opacity="0.53"/>
<ellipse rx="2.21247" ry="1.80462" transform="matrix(-0.0221659 0.999754 -0.999444 -0.0333276 23.8956 244.789)" fill="white" fill-opacity="0.53"/>
<ellipse rx="2.21247" ry="1.80462" transform="matrix(-0.0221659 0.999754 -0.999444 -0.0333276 23.8956 189.028)" fill="white" fill-opacity="0.53"/>
<ellipse rx="2.21247" ry="1.80462" transform="matrix(-0.0221659 0.999754 -0.999444 -0.0333276 23.8956 282.728)" fill="white" fill-opacity="0.53"/>
<ellipse rx="2.21247" ry="1.80462" transform="matrix(-0.0221659 0.999754 -0.999444 -0.0333276 23.8956 226.202)" fill="white" fill-opacity="0.53"/>
<ellipse rx="2.21247" ry="1.80462" transform="matrix(-0.0221659 0.999754 -0.999444 -0.0333276 23.8956 170.441)" fill="white" fill-opacity="0.53"/>
</g>
<defs>
<filter id="filter0_d_1_3067" x="0.0483398" y="0.059082" width="47.0696" height="292.882" filterUnits="userSpaceOnUse" color-interpolation-filters="sRGB">
<feFlood flood-opacity="0" result="BackgroundImageFix"/>
<feColorMatrix in="SourceAlpha" type="matrix" values="0 0 0 0 0 0 0 0 0 0 0 0 0 0 0 0 0 0 127 0" result="hardAlpha"/>
<feOffset dy="4"/>
<feGaussianBlur stdDeviation="2"/>
<feComposite in2="hardAlpha" operator="out"/>
<feColorMatrix type="matrix" values="0 0 0 0 0 0 0 0 0 0 0 0 0 0 0 0 0 0 0.25 0"/>
<feBlend mode="normal" in2="BackgroundImageFix" result="effect1_dropShadow_1_3067"/>
<feBlend mode="normal" in="SourceGraphic" in2="effect1_dropShadow_1_3067" result="shape"/>
</filter>
</defs>
</svg>
