<svg width="73" height="397" viewBox="0 0 73 397" fill="none" xmlns="http://www.w3.org/2000/svg">
<ellipse rx="3.08253" ry="3.36272" transform="matrix(-0.0296529 0.99956 -0.99969 -0.0249141 3.45317 211.362)" fill="white" fill-opacity="0.53"/>
<ellipse rx="3.08253" ry="3.36272" transform="matrix(-0.0296529 0.99956 -0.99969 -0.0249141 4.61747 133.688)" fill="white" fill-opacity="0.53"/>
<ellipse rx="3.08253" ry="3.36272" transform="matrix(-0.0296529 0.99956 -0.99969 -0.0249141 3.45317 54.7801)" fill="white" fill-opacity="0.53"/>
<ellipse rx="3.08253" ry="3.36272" transform="matrix(-0.0296529 0.99956 -0.99969 -0.0249141 4.61747 185.471)" fill="white" fill-opacity="0.53"/>
<ellipse rx="3.08253" ry="3.36272" transform="matrix(-0.0296529 0.99956 -0.99969 -0.0249141 4.61747 106.731)" fill="white" fill-opacity="0.53"/>
<ellipse rx="3.08253" ry="3.36272" transform="matrix(-0.0296529 0.99956 -0.99969 -0.0249141 4.61747 29.0565)" fill="white" fill-opacity="0.53"/>
<ellipse rx="3.08253" ry="3.36272" transform="matrix(-0.0296529 0.99956 -0.99969 -0.0249141 4.61747 159.579)" fill="white" fill-opacity="0.53"/>
<ellipse rx="3.08253" ry="3.36272" transform="matrix(-0.0296529 0.99956 -0.99969 -0.0249141 4.61747 80.8392)" fill="white" fill-opacity="0.53"/>
<ellipse rx="3.08254" ry="3.36273" transform="matrix(-0.0298193 0.999555 -0.999693 -0.024775 4.61694 3.16436)" fill="white" fill-opacity="0.53"/>
<ellipse rx="3.08253" ry="3.36272" transform="matrix(-0.0296529 0.99956 -0.99969 -0.0249141 68.2017 211.362)" fill="white" fill-opacity="0.53"/>
<ellipse rx="3.08253" ry="3.36272" transform="matrix(-0.0296529 0.99956 -0.99969 -0.0249141 69.5469 133.688)" fill="white" fill-opacity="0.53"/>
<ellipse rx="3.08253" ry="3.36272" transform="matrix(-0.0296529 0.99956 -0.99969 -0.0249141 68.2017 54.7801)" fill="white" fill-opacity="0.53"/>
<ellipse rx="3.08253" ry="3.36272" transform="matrix(-0.0296529 0.99956 -0.99969 -0.0249141 69.5469 185.471)" fill="white" fill-opacity="0.53"/>
<ellipse rx="3.08253" ry="3.36272" transform="matrix(-0.0296529 0.99956 -0.99969 -0.0249141 69.5469 106.731)" fill="white" fill-opacity="0.53"/>
<ellipse rx="3.08253" ry="3.36272" transform="matrix(-0.0296529 0.99956 -0.99969 -0.0249141 69.5469 29.0565)" fill="white" fill-opacity="0.53"/>
<ellipse rx="3.08253" ry="3.36272" transform="matrix(-0.0296529 0.99956 -0.99969 -0.0249141 69.5469 159.579)" fill="white" fill-opacity="0.53"/>
<ellipse rx="3.08253" ry="3.36272" transform="matrix(-0.0296529 0.99956 -0.99969 -0.0249141 69.5469 80.8392)" fill="white" fill-opacity="0.53"/>
<ellipse rx="3.08254" ry="3.36273" transform="matrix(-0.0298193 0.999555 -0.999693 -0.024775 69.5464 3.16436)" fill="white" fill-opacity="0.53"/>
<ellipse rx="3.08253" ry="3.36272" transform="matrix(-0.0296529 0.99956 -0.99969 -0.0249141 35.7371 211.362)" fill="white" fill-opacity="0.53"/>
<ellipse rx="3.08253" ry="3.36272" transform="matrix(-0.0296529 0.99956 -0.99969 -0.0249141 37.0823 133.688)" fill="white" fill-opacity="0.53"/>
<ellipse rx="3.08253" ry="3.36272" transform="matrix(-0.0296529 0.99956 -0.99969 -0.0249141 35.7371 54.7801)" fill="white" fill-opacity="0.53"/>
<ellipse rx="3.08253" ry="3.36272" transform="matrix(-0.0296529 0.99956 -0.99969 -0.0249141 37.0823 185.471)" fill="white" fill-opacity="0.53"/>
<ellipse rx="3.08253" ry="3.36272" transform="matrix(-0.0296529 0.99956 -0.99969 -0.0249141 37.0823 106.731)" fill="white" fill-opacity="0.53"/>
<ellipse rx="3.08253" ry="3.36272" transform="matrix(-0.0296529 0.99956 -0.99969 -0.0249141 37.0823 29.0565)" fill="white" fill-opacity="0.53"/>
<ellipse rx="3.08253" ry="3.36272" transform="matrix(-0.0296529 0.99956 -0.99969 -0.0249141 37.0823 159.579)" fill="white" fill-opacity="0.53"/>
<ellipse rx="3.08253" ry="3.36272" transform="matrix(-0.0296529 0.99956 -0.99969 -0.0249141 37.0823 80.8392)" fill="white" fill-opacity="0.53"/>
<ellipse rx="3.08254" ry="3.36273" transform="matrix(-0.0298193 0.999555 -0.999693 -0.024775 37.0818 3.16436)" fill="white" fill-opacity="0.53"/>
<ellipse rx="3.08253" ry="3.36272" transform="matrix(-0.0296529 0.99956 -0.99969 -0.0249141 4.61747 367.944)" fill="white" fill-opacity="0.53"/>
<ellipse rx="3.08253" ry="3.36272" transform="matrix(-0.0296529 0.99956 -0.99969 -0.0249141 3.45317 289.036)" fill="white" fill-opacity="0.53"/>
<ellipse rx="3.08253" ry="3.36272" transform="matrix(-0.0296529 0.99956 -0.99969 -0.0249141 4.61747 340.987)" fill="white" fill-opacity="0.53"/>
<ellipse rx="3.08253" ry="3.36272" transform="matrix(-0.0296529 0.99956 -0.99969 -0.0249141 4.61747 263.312)" fill="white" fill-opacity="0.53"/>
<ellipse rx="3.08253" ry="3.36272" transform="matrix(-0.0296529 0.99956 -0.99969 -0.0249141 4.61747 393.835)" fill="white" fill-opacity="0.53"/>
<ellipse rx="3.08253" ry="3.36272" transform="matrix(-0.0296529 0.99956 -0.99969 -0.0249141 4.61747 315.096)" fill="white" fill-opacity="0.53"/>
<ellipse rx="3.08253" ry="3.36272" transform="matrix(-0.0296529 0.99956 -0.99969 -0.0249141 4.61747 237.421)" fill="white" fill-opacity="0.53"/>
<ellipse rx="3.08253" ry="3.36272" transform="matrix(-0.0296529 0.99956 -0.99969 -0.0249141 69.5469 367.944)" fill="white" fill-opacity="0.53"/>
<ellipse rx="3.08253" ry="3.36272" transform="matrix(-0.0296529 0.99956 -0.99969 -0.0249141 68.2017 289.036)" fill="white" fill-opacity="0.53"/>
<ellipse rx="3.08253" ry="3.36272" transform="matrix(-0.0296529 0.99956 -0.99969 -0.0249141 69.5469 340.987)" fill="white" fill-opacity="0.53"/>
<ellipse rx="3.08253" ry="3.36272" transform="matrix(-0.0296529 0.99956 -0.99969 -0.0249141 69.5469 263.312)" fill="white" fill-opacity="0.53"/>
<ellipse rx="3.08253" ry="3.36272" transform="matrix(-0.0296529 0.99956 -0.99969 -0.0249141 69.5469 393.835)" fill="white" fill-opacity="0.53"/>
<ellipse rx="3.08253" ry="3.36272" transform="matrix(-0.0296529 0.99956 -0.99969 -0.0249141 69.5469 315.096)" fill="white" fill-opacity="0.53"/>
<ellipse rx="3.08253" ry="3.36272" transform="matrix(-0.0296529 0.99956 -0.99969 -0.0249141 69.5469 237.421)" fill="white" fill-opacity="0.53"/>
<ellipse rx="3.08253" ry="3.36272" transform="matrix(-0.0296529 0.99956 -0.99969 -0.0249141 37.0823 367.944)" fill="white" fill-opacity="0.53"/>
<ellipse rx="3.08253" ry="3.36272" transform="matrix(-0.0296529 0.99956 -0.99969 -0.0249141 35.7371 289.036)" fill="white" fill-opacity="0.53"/>
<ellipse rx="3.08253" ry="3.36272" transform="matrix(-0.0296529 0.99956 -0.99969 -0.0249141 37.0823 340.987)" fill="white" fill-opacity="0.53"/>
<ellipse rx="3.08253" ry="3.36272" transform="matrix(-0.0296529 0.99956 -0.99969 -0.0249141 37.0823 263.312)" fill="white" fill-opacity="0.53"/>
<ellipse rx="3.08253" ry="3.36272" transform="matrix(-0.0296529 0.99956 -0.99969 -0.0249141 37.0823 393.835)" fill="white" fill-opacity="0.53"/>
<ellipse rx="3.08253" ry="3.36272" transform="matrix(-0.0296529 0.99956 -0.99969 -0.0249141 37.0823 315.096)" fill="white" fill-opacity="0.53"/>
<ellipse rx="3.08253" ry="3.36272" transform="matrix(-0.0296529 0.99956 -0.99969 -0.0249141 37.0823 237.421)" fill="white" fill-opacity="0.53"/>
</svg>
