<svg width="70" height="91" viewBox="0 0 70 91" fill="none" xmlns="http://www.w3.org/2000/svg">
<circle cx="3.36489" cy="59.551" r="3.27699" transform="rotate(91.5575 3.36489 59.551)" fill="#85BD0E"/>
<circle cx="3.36489" cy="30.8913" r="3.27699" transform="rotate(91.5575 3.36489 30.8913)" fill="#85BD0E"/>
<circle cx="3.36489" cy="87.0773" r="3.27699" transform="rotate(91.5575 3.36489 87.0773)" fill="#85BD0E"/>
<circle cx="3.36489" cy="3.36493" r="3.27699" transform="rotate(91.5575 3.36489 3.36493)" fill="#85BD0E"/>
<circle cx="66.6352" cy="59.551" r="3.27699" transform="rotate(91.5575 66.6352 59.551)" fill="#85BD0E"/>
<circle cx="66.6352" cy="30.8913" r="3.27699" transform="rotate(91.5575 66.6352 30.8913)" fill="#85BD0E"/>
<circle cx="66.6352" cy="87.0773" r="3.27699" transform="rotate(91.5575 66.6352 87.0773)" fill="#85BD0E"/>
<circle cx="66.6352" cy="3.36493" r="3.27699" transform="rotate(91.5575 66.6352 3.36493)" fill="#85BD0E"/>
<circle cx="35.0001" cy="59.551" r="3.27699" transform="rotate(91.5575 35.0001 59.551)" fill="#85BD0E"/>
<circle cx="35.0001" cy="30.8913" r="3.27699" transform="rotate(91.5575 35.0001 30.8913)" fill="#85BD0E"/>
<circle cx="35.0001" cy="87.0773" r="3.27699" transform="rotate(91.5575 35.0001 87.0773)" fill="#85BD0E"/>
<circle cx="35.0001" cy="3.36493" r="3.27699" transform="rotate(91.5575 35.0001 3.36493)" fill="#85BD0E"/>
</svg>
