<svg width="23" height="54" viewBox="0 0 23 54" fill="none" xmlns="http://www.w3.org/2000/svg">
<circle cx="1.43914" cy="44.1194" r="1.04814" transform="rotate(91.5575 1.43914 44.1194)" fill="#85BD0E"/>
<circle cx="1.07634" cy="17.2868" r="1.04814" transform="rotate(91.5575 1.07634 17.2868)" fill="#85BD0E"/>
<circle cx="1.43914" cy="34.9529" r="1.04814" transform="rotate(91.5575 1.43914 34.9529)" fill="#85BD0E"/>
<circle cx="1.43914" cy="8.53977" r="1.04814" transform="rotate(91.5575 1.43914 8.53977)" fill="#85BD0E"/>
<circle cx="1.43914" cy="52.9236" r="1.04814" transform="rotate(91.5575 1.43914 52.9236)" fill="#85BD0E"/>
<circle cx="1.43914" cy="26.1482" r="1.04814" transform="rotate(91.5575 1.43914 26.1482)" fill="#85BD0E"/>
<circle cx="1.43914" cy="-0.264913" r="1.04814" transform="rotate(91.5575 1.43914 -0.264913)" fill="#85BD0E"/>
<circle cx="21.6762" cy="44.1194" r="1.04814" transform="rotate(91.5575 21.6762 44.1194)" fill="#85BD0E"/>
<circle cx="21.257" cy="17.2868" r="1.04814" transform="rotate(91.5575 21.257 17.2868)" fill="#85BD0E"/>
<circle cx="21.6762" cy="34.9529" r="1.04814" transform="rotate(91.5575 21.6762 34.9529)" fill="#85BD0E"/>
<circle cx="21.6762" cy="8.53977" r="1.04814" transform="rotate(91.5575 21.6762 8.53977)" fill="#85BD0E"/>
<circle cx="21.6762" cy="52.9236" r="1.04814" transform="rotate(91.5575 21.6762 52.9236)" fill="#85BD0E"/>
<circle cx="21.6762" cy="26.1482" r="1.04814" transform="rotate(91.5575 21.6762 26.1482)" fill="#85BD0E"/>
<circle cx="21.6762" cy="-0.264913" r="1.04814" transform="rotate(91.5575 21.6762 -0.264913)" fill="#85BD0E"/>
<circle cx="11.5575" cy="44.1194" r="1.04814" transform="rotate(91.5575 11.5575 44.1194)" fill="#85BD0E"/>
<circle cx="11.1384" cy="17.2868" r="1.04814" transform="rotate(91.5575 11.1384 17.2868)" fill="#85BD0E"/>
<circle cx="11.5575" cy="34.9529" r="1.04814" transform="rotate(91.5575 11.5575 34.9529)" fill="#85BD0E"/>
<circle cx="11.5575" cy="8.53977" r="1.04814" transform="rotate(91.5575 11.5575 8.53977)" fill="#85BD0E"/>
<circle cx="11.5575" cy="52.9236" r="1.04814" transform="rotate(91.5575 11.5575 52.9236)" fill="#85BD0E"/>
<circle cx="11.5575" cy="26.1482" r="1.04814" transform="rotate(91.5575 11.5575 26.1482)" fill="#85BD0E"/>
<circle cx="11.5575" cy="-0.264913" r="1.04814" transform="rotate(91.5575 11.5575 -0.264913)" fill="#85BD0E"/>
</svg>
