<svg width="40" height="61" viewBox="0 0 40 61" fill="none" xmlns="http://www.w3.org/2000/svg">
<ellipse rx="2.22597" ry="1.828" transform="matrix(-0.0223171 0.999751 -0.999452 -0.033102 1.87674 40.4559)" fill="#85BD0E"/>
<ellipse rx="2.22597" ry="1.828" transform="matrix(-0.0223171 0.999751 -0.999452 -0.033102 1.87674 20.9862)" fill="#85BD0E"/>
<ellipse rx="2.22597" ry="1.828" transform="matrix(-0.0223171 0.999751 -0.999452 -0.033102 1.87674 59.1566)" fill="#85BD0E"/>
<ellipse rx="2.22597" ry="1.828" transform="matrix(-0.0223171 0.999751 -0.999452 -0.033102 1.87674 2.28599)" fill="#85BD0E"/>
<ellipse rx="2.22597" ry="1.828" transform="matrix(-0.0223171 0.999751 -0.999452 -0.033102 37.1643 40.4559)" fill="#85BD0E"/>
<ellipse rx="2.22597" ry="1.828" transform="matrix(-0.0223171 0.999751 -0.999452 -0.033102 37.1643 20.9862)" fill="#85BD0E"/>
<ellipse rx="2.22597" ry="1.828" transform="matrix(-0.0223171 0.999751 -0.999452 -0.033102 37.1643 59.1566)" fill="#85BD0E"/>
<ellipse rx="2.22597" ry="1.828" transform="matrix(-0.0223171 0.999751 -0.999452 -0.033102 37.1643 2.28599)" fill="#85BD0E"/>
<ellipse rx="2.22597" ry="1.828" transform="matrix(-0.0223171 0.999751 -0.999452 -0.033102 19.5205 40.4559)" fill="#85BD0E"/>
<ellipse rx="2.22597" ry="1.828" transform="matrix(-0.0223171 0.999751 -0.999452 -0.033102 19.5205 20.9862)" fill="#85BD0E"/>
<ellipse rx="2.22597" ry="1.828" transform="matrix(-0.0223171 0.999751 -0.999452 -0.033102 19.5205 59.1566)" fill="#85BD0E"/>
<ellipse rx="2.22597" ry="1.828" transform="matrix(-0.0223171 0.999751 -0.999452 -0.033102 19.5205 2.28599)" fill="#85BD0E"/>
</svg>
