<svg width="55" height="136" viewBox="0 0 55 136" fill="none" xmlns="http://www.w3.org/2000/svg">
<circle cx="3.43297" cy="112.431" r="2.5" transform="rotate(91.5575 3.43297 112.431)" fill="#85BD0E"/>
<circle cx="2.56725" cy="48.4311" r="2.5" transform="rotate(91.5575 2.56725 48.4311)" fill="#85BD0E"/>
<circle cx="3.43297" cy="90.5669" r="2.5" transform="rotate(91.5575 3.43297 90.5669)" fill="#85BD0E"/>
<circle cx="3.43297" cy="27.5669" r="2.5" transform="rotate(91.5575 3.43297 27.5669)" fill="#85BD0E"/>
<circle cx="3.43297" cy="133.431" r="2.5" transform="rotate(91.5575 3.43297 133.431)" fill="#85BD0E"/>
<circle cx="3.43297" cy="69.5669" r="2.5" transform="rotate(91.5575 3.43297 69.5669)" fill="#85BD0E"/>
<circle cx="3.43297" cy="6.56687" r="2.5" transform="rotate(91.5575 3.43297 6.56687)" fill="#85BD0E"/>
<circle cx="51.7015" cy="112.431" r="2.5" transform="rotate(91.5575 51.7015 112.431)" fill="#85BD0E"/>
<circle cx="50.7015" cy="48.4311" r="2.5" transform="rotate(91.5575 50.7015 48.4311)" fill="#85BD0E"/>
<circle cx="51.7015" cy="90.5669" r="2.5" transform="rotate(91.5575 51.7015 90.5669)" fill="#85BD0E"/>
<circle cx="51.7015" cy="27.5669" r="2.5" transform="rotate(91.5575 51.7015 27.5669)" fill="#85BD0E"/>
<circle cx="51.7015" cy="133.431" r="2.5" transform="rotate(91.5575 51.7015 133.431)" fill="#85BD0E"/>
<circle cx="51.7015" cy="69.5669" r="2.5" transform="rotate(91.5575 51.7015 69.5669)" fill="#85BD0E"/>
<circle cx="51.7015" cy="6.56687" r="2.5" transform="rotate(91.5575 51.7015 6.56687)" fill="#85BD0E"/>
<circle cx="27.5672" cy="112.431" r="2.5" transform="rotate(91.5575 27.5672 112.431)" fill="#85BD0E"/>
<circle cx="26.5672" cy="48.4311" r="2.5" transform="rotate(91.5575 26.5672 48.4311)" fill="#85BD0E"/>
<circle cx="27.5672" cy="90.5669" r="2.5" transform="rotate(91.5575 27.5672 90.5669)" fill="#85BD0E"/>
<circle cx="27.5672" cy="27.5669" r="2.5" transform="rotate(91.5575 27.5672 27.5669)" fill="#85BD0E"/>
<circle cx="27.5672" cy="133.431" r="2.5" transform="rotate(91.5575 27.5672 133.431)" fill="#85BD0E"/>
<circle cx="27.5672" cy="69.5669" r="2.5" transform="rotate(91.5575 27.5672 69.5669)" fill="#85BD0E"/>
<circle cx="27.5672" cy="6.56687" r="2.5" transform="rotate(91.5575 27.5672 6.56687)" fill="#85BD0E"/>
</svg>
